<svg width="132" height="132" viewBox="0 0 132 132" fill="none" xmlns="http://www.w3.org/2000/svg">
<path d="M66.3452 115.638C93.5758 115.638 115.651 93.5629 115.651 66.3323C115.651 39.1016 93.5758 17.0269 66.3452 17.0269C39.1146 17.0269 17.0398 39.1016 17.0398 66.3323C17.0398 93.5629 39.1146 115.638 66.3452 115.638Z" fill="#F1F1F1" stroke="#B90303" stroke-width="0.5"/>
<path d="M85.2066 66.1936L56.7065 81.7825V50.6051L85.2066 66.1936Z" fill="#B90303"/>
<path d="M112.622 26.491C112.314 26.3588 111.741 25.9621 111.167 25.389C109.889 24.0226 109.845 22.1272 111.432 20.6285C113.019 19.218 115.002 19.2621 116.413 20.8489C116.942 21.466 117.206 21.995 117.25 22.2154L116.589 22.5239C116.501 22.1713 116.237 21.7305 115.84 21.3338C114.782 20.1877 113.327 20.0555 112.005 21.2897C110.815 22.3917 110.639 23.8022 111.741 24.9923C112.093 25.345 112.534 25.6976 112.887 25.8739L112.622 26.491Z" fill="#B90303"/>
<path d="M116.942 24.4636L117.603 25.3011L116.148 27.4609C115.928 27.7695 115.575 28.2984 115.355 28.607C115.708 28.5188 116.501 28.2544 117.03 28.0781L119.19 27.4169L119.851 28.2544L116.192 31.384L115.708 30.7228L117.515 29.2682C117.911 28.9596 118.352 28.5188 118.881 28.1662C118.44 28.3425 118.044 28.4748 117.294 28.6952L114.782 29.4445L114.385 28.9596L115.796 26.8438C116.104 26.4471 116.501 25.8741 116.81 25.4774L116.765 25.4333C116.281 25.7419 115.752 26.0945 115.355 26.4031L113.46 27.6813L112.975 27.0202L116.942 24.4636Z" fill="#B90303"/>
<path d="M121.085 34.7776C119.542 35.7033 118.263 35.0421 117.646 34.0724C116.985 32.9704 117.294 31.6039 118.529 30.8105C119.895 29.973 121.262 30.3697 121.967 31.5158C122.716 32.7059 122.364 34.0283 121.085 34.7776ZM119.014 31.5599C118.132 32.0888 117.734 33.0145 118.219 33.7638C118.66 34.4691 119.675 34.6013 120.6 34.0283C121.306 33.5875 121.967 32.75 121.394 31.8243C120.909 30.9868 119.851 31.075 119.014 31.5599Z" fill="#B90303"/>
<path d="M125.185 37.6432L124.568 37.9958L123.862 36.6734L120.204 38.5688L119.807 37.8195L123.466 35.9241L122.76 34.6017L123.378 34.2491L125.185 37.6432Z" fill="#B90303"/>
<path d="M124.127 39.1419C124.7 38.9215 125.185 38.7011 125.582 38.4807L125.89 39.23L125.141 39.6267C125.846 39.7149 126.331 40.1116 126.64 40.8609C127.08 41.9188 126.507 43.109 125.141 43.682C123.51 44.3432 122.32 43.682 121.923 42.6682C121.703 42.0952 121.703 41.4781 122.055 41.0373L119.631 42.0511L119.278 41.2577L124.127 39.1419ZM123.29 40.4202C123.157 40.4642 123.069 40.5524 122.937 40.5965C122.452 40.9932 122.276 41.6103 122.496 42.1833C122.849 43.0649 123.73 43.2412 124.788 42.8004C125.67 42.4478 126.243 41.6103 125.89 40.8169C125.67 40.2438 125.053 39.8912 124.392 40.0234C124.303 40.0234 124.171 40.0675 124.039 40.1116L123.29 40.4202Z" fill="#B90303"/>
<path d="M125.537 45.3127C124.435 45.7094 124.171 46.591 124.435 47.3844C124.611 48.0015 124.832 48.31 125.096 48.5745L124.567 48.9271C124.347 48.7068 124.038 48.2219 123.818 47.4725C123.377 46.062 123.994 44.916 125.405 44.4752C126.815 44.0344 128.138 44.4752 128.534 45.8416C128.975 47.3403 127.829 48.1337 126.992 48.4423C126.815 48.5304 126.683 48.4864 126.595 48.5745L125.537 45.3127ZM126.903 47.5607C127.432 47.3844 128.182 46.8995 127.873 45.9739C127.609 45.0923 126.727 45.0041 126.11 45.0923L126.903 47.5607Z" fill="#B90303"/>
<path d="M130.077 52.2331L129.372 52.4094L129.02 50.9107L125.008 51.8364L124.788 50.9989L128.799 50.0732L128.446 48.5745L129.152 48.3982L130.077 52.2331Z" fill="#B90303"/>
<path d="M130.43 53.9964L128.843 54.2609C128.931 54.4372 128.975 54.7457 129.019 55.0543C129.196 56.1122 129.063 57.3023 127.785 57.5227C127.256 57.6109 126.904 57.4346 126.595 57.2142C126.066 56.7734 125.846 55.9359 125.669 55.2306C125.625 54.7457 125.537 54.305 125.537 53.9523L130.298 53.1589L130.43 53.9964ZM126.286 54.7017C126.286 54.878 126.286 55.0543 126.331 55.3629C126.463 56.024 126.815 56.8175 127.565 56.6852C128.402 56.553 128.402 55.6714 128.358 55.0102C128.314 54.7898 128.27 54.5694 128.182 54.3931L126.286 54.7017Z" fill="#B90303"/>
<path d="M131.224 60.5203C131.312 60.873 131.4 61.4901 131.4 62.019C131.444 62.8565 131.356 64.1789 130.342 64.223C129.769 64.2671 129.328 63.8263 129.196 63.2532C129.108 63.9585 128.755 64.4875 128.094 64.5315C126.816 64.5756 126.595 63.0329 126.507 62.0631C126.507 61.5342 126.463 60.9611 126.463 60.6967L131.224 60.5203ZM127.08 61.5782C127.08 61.8427 127.08 62.019 127.08 62.2835C127.124 62.8565 127.301 63.7381 127.962 63.694C128.667 63.694 128.799 62.9447 128.755 62.1072L128.711 61.446L127.08 61.5782ZM129.284 61.4901L129.328 62.1513C129.372 62.8125 129.593 63.4736 130.166 63.4296C130.651 63.3855 130.871 62.9888 130.783 62.1072C130.783 61.8427 130.739 61.6223 130.695 61.4019L129.284 61.4901Z" fill="#B90303"/>
<path d="M131.487 66.6031L129.46 66.515C128.71 66.4709 128.181 66.4709 127.52 66.4268C128.093 66.7354 128.446 66.9117 128.975 67.2643L131.443 68.8511L131.399 69.865L126.594 69.7327L126.639 68.8952L128.666 68.9834C129.46 68.9834 129.856 69.0275 130.65 69.1156C130.033 68.763 129.68 68.5867 129.195 68.2781C128.446 67.7933 127.564 67.2643 126.727 66.6913L126.771 65.6775L131.487 65.8097V66.6031Z" fill="#B90303"/>
<path d="M130.783 75.3305L126.683 74.8455L126.639 75.3305L124.479 75.0215L124.568 74.3165L126.11 74.4485L126.507 71.1425L124.964 70.9225L125.052 70.2175L127.212 70.4375L127.168 70.8345C127.433 71.0985 127.785 71.2755 128.094 71.4075C128.667 71.6275 129.284 71.8045 129.989 71.8925L131.224 72.0685L130.783 75.3305ZM129.637 72.6855C129.02 72.5975 128.402 72.4215 127.874 72.2445C127.565 72.1125 127.3 71.9365 127.036 71.7605L126.772 73.9635L130.254 74.3605L130.43 72.7735L129.637 72.6855Z" fill="#B90303"/>
<path d="M127.873 77.0054C126.683 76.7854 126.066 77.4024 125.89 78.2834C125.802 78.9004 125.802 79.2534 125.846 79.6504L125.185 79.6944C125.096 79.3414 125.096 78.8124 125.229 78.0634C125.537 76.6084 126.639 75.9474 128.05 76.2124C129.46 76.4764 130.43 77.5344 130.165 78.9444C129.857 80.4874 128.402 80.6194 127.521 80.4434C127.344 80.4434 127.212 80.3994 127.124 80.3114L127.873 77.0054ZM128.006 79.6944C128.579 79.8264 129.46 79.7384 129.637 78.7684C129.813 77.8874 129.108 77.3584 128.49 77.1814L128.006 79.6944Z" fill="#B90303"/>
<path d="M125.934 85.7335C124.215 85.2485 123.818 83.7935 124.126 82.6915C124.479 81.4575 125.713 80.7525 127.168 81.1485C128.711 81.6335 129.328 82.8685 128.975 84.1905C128.534 85.5125 127.344 86.1735 125.934 85.7335ZM126.903 82.0305C125.89 81.7215 124.964 82.1185 124.7 82.9125C124.435 83.7055 125.008 84.5425 126.11 84.8515C126.859 85.0715 128.005 84.9835 128.314 83.9695C128.623 82.9565 127.785 82.2945 126.903 82.0305Z" fill="#B90303"/>
<path d="M105.041 112.621C105.173 112.312 105.57 111.739 106.143 111.166C107.509 109.888 109.405 109.844 110.903 111.431C112.314 113.018 112.27 115.001 110.683 116.412C110.066 116.941 109.537 117.205 109.316 117.249L109.008 116.588C109.361 116.5 109.801 116.235 110.198 115.839C111.344 114.781 111.476 113.326 110.242 112.004C109.14 110.814 107.73 110.637 106.539 111.739C106.187 112.092 105.834 112.533 105.658 112.885L105.041 112.621Z" fill="#B90303"/>
<path d="M107.025 116.898L106.187 117.559L104.027 116.104C103.719 115.884 103.19 115.531 102.881 115.311C102.969 115.663 103.234 116.457 103.41 116.986L104.071 119.146L103.234 119.807L100.104 116.148L100.765 115.663L102.22 117.471C102.528 117.867 102.969 118.308 103.322 118.837C103.146 118.396 103.013 118 102.793 117.25L102.044 114.738L102.528 114.341L104.644 115.752C105.041 116.06 105.614 116.457 106.011 116.765L106.055 116.721C105.746 116.236 105.394 115.708 105.085 115.311L103.807 113.415L104.468 112.931L107.025 116.898Z" fill="#B90303"/>
<path d="M96.7095 121.04C95.7835 119.497 96.4445 118.219 97.4145 117.602C98.5165 116.941 99.8825 117.249 100.677 118.484C101.514 119.85 101.118 121.216 99.9705 121.922C98.7805 122.671 97.5025 122.274 96.7095 121.04ZM99.9705 119.013C99.4425 118.131 98.5165 117.734 97.7675 118.219C97.0615 118.66 96.9295 119.674 97.5025 120.599C97.9435 121.305 98.7805 121.966 99.7065 121.393C100.545 120.82 100.456 119.762 99.9705 119.013Z" fill="#B90303"/>
<path d="M93.9326 125.139L93.5796 124.522L94.9026 123.817L93.0066 120.159L93.7566 119.762L95.6516 123.42L96.9736 122.715L97.3266 123.332L93.9326 125.139Z" fill="#B90303"/>
<path d="M92.3906 124.126C92.6106 124.699 92.8306 125.184 93.0516 125.58L92.3016 125.889L91.9056 125.139C91.8176 125.845 91.4206 126.33 90.6706 126.638C89.6136 127.079 88.4226 126.506 87.8496 125.139C87.1886 123.509 87.8496 122.318 88.8636 121.922C89.4366 121.701 90.0536 121.701 90.4946 122.054L89.4806 119.63L90.2746 119.277L92.3906 124.126ZM91.0676 123.244C91.0236 123.112 90.9356 123.024 90.8916 122.891C90.4946 122.407 89.8776 122.23 89.3046 122.451C88.4226 122.803 88.2466 123.685 88.6876 124.743C89.0406 125.624 89.8776 126.197 90.6706 125.845C91.2436 125.624 91.5966 125.007 91.4646 124.346C91.4646 124.258 91.4206 124.126 91.3766 123.993L91.0676 123.244Z" fill="#B90303"/>
<path d="M86.2185 125.448C85.8225 124.346 84.9405 124.082 84.1475 124.346C83.5305 124.522 83.2215 124.743 82.9575 125.007L82.6045 124.478C82.8245 124.258 83.3095 123.949 84.0595 123.729C85.4695 123.288 86.6155 123.905 87.0565 125.316C87.4975 126.726 87.0565 128.049 85.6895 128.445C84.1915 128.886 83.3975 127.74 83.0895 126.903C83.0015 126.726 83.0455 126.594 82.9575 126.506L86.2185 125.448ZM83.9705 126.815C84.1475 127.343 84.6325 128.093 85.5575 127.784C86.4395 127.52 86.5275 126.638 86.4395 126.021L83.9705 126.815Z" fill="#B90303"/>
<path d="M79.3425 130.033L79.1665 129.328L80.6645 128.975L79.7395 124.964L80.5765 124.744L81.5025 128.755L83.0005 128.402L83.1775 129.107L79.3425 130.033Z" fill="#B90303"/>
<path d="M77.5345 130.341L77.2705 128.754C77.0945 128.842 76.7855 128.886 76.4775 128.93C75.4195 129.107 74.2295 128.974 74.0085 127.696C73.9205 127.167 74.0965 126.814 74.3175 126.506C74.7575 125.977 75.5955 125.757 76.3005 125.58C76.7855 125.536 77.2265 125.448 77.5795 125.448L78.3725 130.209L77.5345 130.341ZM76.8295 126.197C76.6535 126.197 76.4775 126.197 76.1685 126.241C75.5075 126.374 74.7135 126.726 74.8465 127.476C74.9785 128.313 75.8595 128.313 76.5215 128.269C76.7415 128.225 76.9615 128.181 77.1385 128.093L76.8295 126.197Z" fill="#B90303"/>
<path d="M70.9675 131.178C70.6145 131.266 69.9976 131.355 69.4687 131.355C68.6312 131.399 67.3088 131.31 67.2647 130.297C67.2206 129.724 67.6614 129.283 68.2344 129.151C67.5292 129.062 67.0002 128.71 66.9562 128.049C66.9121 126.77 68.4548 126.55 69.4246 126.462C69.9535 126.462 70.5265 126.418 70.7915 126.418L70.9675 131.178ZM69.9535 126.991C69.6891 126.991 69.5127 126.991 69.2483 126.991C68.6752 127.035 67.7937 127.211 67.8377 127.872C67.8377 128.578 68.5871 128.71 69.4246 128.666L70.0858 128.622L69.9535 126.991ZM70.0858 129.239L69.4246 129.283C68.7634 129.327 68.1022 129.547 68.1463 130.12C68.1904 130.605 68.5871 130.826 69.4687 130.737C69.7331 130.737 69.9535 130.693 70.1739 130.649L70.0858 129.239Z" fill="#B90303"/>
<path d="M64.9286 131.399L65.0167 129.371C65.0608 128.622 65.0608 128.093 65.1049 127.431C64.7963 128.004 64.62 128.357 64.2674 128.886L62.6805 131.354L61.6667 131.31L61.799 126.506L62.6366 126.55L62.5483 128.578C62.5483 129.371 62.5043 129.768 62.4162 130.561C62.7688 129.944 62.945 129.591 63.2536 129.106C63.7384 128.357 64.2674 127.476 64.8404 126.638L65.8542 126.682L65.7221 131.487L64.9286 131.399Z" fill="#B90303"/>
<path d="M56.2451 130.737L56.73 126.638L56.2451 126.594L56.5536 124.434L57.2589 124.522L57.1267 126.065L60.4326 126.462L60.653 124.919L61.3583 125.007L61.1379 127.167L60.7411 127.123C60.4767 127.387 60.3004 127.74 60.1681 128.049C59.9477 128.622 59.7714 129.239 59.6833 129.944L59.5069 131.178L56.2451 130.737ZM58.8017 129.591C58.8898 128.974 59.0661 128.357 59.2425 127.828C59.3747 127.52 59.551 127.255 59.7273 126.991L57.5234 126.726L57.1267 130.208L58.7135 130.385L58.8017 129.591Z" fill="#B90303"/>
<path d="M54.4818 127.828C54.7022 126.638 54.0851 126.021 53.2035 125.845C52.5864 125.757 52.2338 125.757 51.8371 125.801L51.793 125.14C52.1456 125.051 52.6746 125.051 53.4239 125.184C54.8785 125.492 55.5397 126.594 55.2752 128.005C55.0108 129.415 53.9529 130.385 52.5423 130.121C50.9996 129.812 50.8674 128.357 51.0437 127.476C51.0437 127.299 51.0877 127.167 51.1759 127.079L54.4818 127.828ZM51.8371 127.917C51.7049 128.49 51.793 129.371 52.7627 129.548C53.6443 129.724 54.1733 129.019 54.3496 128.401L51.8371 127.917Z" fill="#B90303"/>
<path d="M45.7984 125.845C46.2832 124.126 47.7378 123.73 48.8398 124.039C50.074 124.391 50.7793 125.625 50.3826 127.08C49.8977 128.623 48.6635 129.239 47.3411 128.886C45.9747 128.489 45.3576 127.255 45.7984 125.845ZM49.4569 126.86C49.7655 125.846 49.3688 124.92 48.5753 124.656C47.7819 124.391 46.9444 124.963 46.6359 126.065C46.4155 126.814 46.5036 127.962 47.5175 128.27C48.4872 128.535 49.1924 127.741 49.4569 126.86Z" fill="#B90303"/>
<path d="M105.041 112.621C105.173 112.312 105.57 111.739 106.143 111.166C107.509 109.888 109.405 109.844 110.903 111.431C112.314 113.018 112.27 115.001 110.683 116.412C110.066 116.941 109.537 117.205 109.316 117.249L109.008 116.588C109.361 116.5 109.801 116.235 110.198 115.839C111.344 114.781 111.476 113.326 110.242 112.004C109.14 110.814 107.73 110.637 106.539 111.739C106.187 112.092 105.834 112.533 105.658 112.885L105.041 112.621Z" fill="#B90303"/>
<path d="M107.025 116.898L106.187 117.559L104.027 116.104C103.719 115.884 103.19 115.531 102.881 115.311C102.969 115.663 103.234 116.457 103.41 116.986L104.071 119.146L103.234 119.807L100.104 116.148L100.765 115.663L102.22 117.471C102.528 117.867 102.969 118.308 103.322 118.837C103.146 118.396 103.013 118 102.793 117.25L102.044 114.738L102.528 114.341L104.644 115.752C105.041 116.06 105.614 116.457 106.011 116.765L106.055 116.721C105.746 116.236 105.394 115.708 105.085 115.311L103.807 113.415L104.468 112.931L107.025 116.898Z" fill="#B90303"/>
<path d="M96.7095 121.04C95.7835 119.497 96.4445 118.219 97.4145 117.602C98.5165 116.941 99.8825 117.249 100.677 118.484C101.514 119.85 101.118 121.216 99.9705 121.922C98.7805 122.671 97.5025 122.274 96.7095 121.04ZM99.9705 119.013C99.4425 118.131 98.5165 117.734 97.7675 118.219C97.0615 118.66 96.9295 119.674 97.5025 120.599C97.9435 121.305 98.7805 121.966 99.7065 121.393C100.545 120.82 100.456 119.762 99.9705 119.013Z" fill="#B90303"/>
<path d="M93.9326 125.139L93.5796 124.522L94.9026 123.817L93.0066 120.159L93.7566 119.762L95.6516 123.42L96.9736 122.715L97.3266 123.332L93.9326 125.139Z" fill="#B90303"/>
<path d="M92.3906 124.126C92.6106 124.699 92.8306 125.184 93.0516 125.58L92.3016 125.889L91.9056 125.139C91.8176 125.845 91.4206 126.33 90.6706 126.638C89.6136 127.079 88.4226 126.506 87.8496 125.139C87.1886 123.509 87.8496 122.318 88.8636 121.922C89.4366 121.701 90.0536 121.701 90.4946 122.054L89.4806 119.63L90.2746 119.277L92.3906 124.126ZM91.0676 123.244C91.0236 123.112 90.9356 123.024 90.8916 122.891C90.4946 122.407 89.8776 122.23 89.3046 122.451C88.4226 122.803 88.2466 123.685 88.6876 124.743C89.0406 125.624 89.8776 126.197 90.6706 125.845C91.2436 125.624 91.5966 125.007 91.4646 124.346C91.4646 124.258 91.4206 124.126 91.3766 123.993L91.0676 123.244Z" fill="#B90303"/>
<path d="M86.2185 125.448C85.8225 124.346 84.9405 124.082 84.1475 124.346C83.5305 124.522 83.2215 124.743 82.9575 125.007L82.6045 124.478C82.8245 124.258 83.3095 123.949 84.0595 123.729C85.4695 123.288 86.6155 123.905 87.0565 125.316C87.4975 126.726 87.0565 128.049 85.6895 128.445C84.1915 128.886 83.3975 127.74 83.0895 126.903C83.0015 126.726 83.0455 126.594 82.9575 126.506L86.2185 125.448ZM83.9705 126.815C84.1475 127.343 84.6325 128.093 85.5575 127.784C86.4395 127.52 86.5275 126.638 86.4395 126.021L83.9705 126.815Z" fill="#B90303"/>
<path d="M79.3425 130.033L79.1665 129.328L80.6645 128.975L79.7395 124.964L80.5765 124.744L81.5025 128.755L83.0005 128.402L83.1775 129.107L79.3425 130.033Z" fill="#B90303"/>
<path d="M77.5345 130.341L77.2705 128.754C77.0945 128.842 76.7855 128.886 76.4775 128.93C75.4195 129.107 74.2295 128.974 74.0085 127.696C73.9205 127.167 74.0965 126.814 74.3175 126.506C74.7575 125.977 75.5955 125.757 76.3005 125.58C76.7855 125.536 77.2265 125.448 77.5795 125.448L78.3725 130.209L77.5345 130.341ZM76.8295 126.197C76.6535 126.197 76.4775 126.197 76.1685 126.241C75.5075 126.374 74.7135 126.726 74.8465 127.476C74.9785 128.313 75.8595 128.313 76.5215 128.269C76.7415 128.225 76.9615 128.181 77.1385 128.093L76.8295 126.197Z" fill="#B90303"/>
<path d="M70.9675 131.178C70.6145 131.266 69.9976 131.355 69.4687 131.355C68.6312 131.399 67.3088 131.31 67.2647 130.297C67.2206 129.724 67.6614 129.283 68.2344 129.151C67.5292 129.062 67.0002 128.71 66.9562 128.049C66.9121 126.77 68.4548 126.55 69.4246 126.462C69.9535 126.462 70.5265 126.418 70.7915 126.418L70.9675 131.178ZM69.9535 126.991C69.6891 126.991 69.5127 126.991 69.2483 126.991C68.6752 127.035 67.7937 127.211 67.8377 127.872C67.8377 128.578 68.5871 128.71 69.4246 128.666L70.0858 128.622L69.9535 126.991ZM70.0858 129.239L69.4246 129.283C68.7634 129.327 68.1022 129.547 68.1463 130.12C68.1904 130.605 68.5871 130.826 69.4687 130.737C69.7331 130.737 69.9535 130.693 70.1739 130.649L70.0858 129.239Z" fill="#B90303"/>
<path d="M64.9286 131.399L65.0167 129.371C65.0608 128.622 65.0608 128.093 65.1049 127.431C64.7963 128.004 64.62 128.357 64.2674 128.886L62.6805 131.354L61.6667 131.31L61.799 126.506L62.6366 126.55L62.5483 128.578C62.5483 129.371 62.5043 129.768 62.4162 130.561C62.7688 129.944 62.945 129.591 63.2536 129.106C63.7384 128.357 64.2674 127.476 64.8404 126.638L65.8542 126.682L65.7221 131.487L64.9286 131.399Z" fill="#B90303"/>
<path d="M56.2451 130.737L56.73 126.638L56.2451 126.594L56.5536 124.434L57.2589 124.522L57.1267 126.065L60.4326 126.462L60.653 124.919L61.3583 125.007L61.1379 127.167L60.7411 127.123C60.4767 127.387 60.3004 127.74 60.1681 128.049C59.9477 128.622 59.7714 129.239 59.6833 129.944L59.5069 131.178L56.2451 130.737ZM58.8017 129.591C58.8898 128.974 59.0661 128.357 59.2425 127.828C59.3747 127.52 59.551 127.255 59.7273 126.991L57.5234 126.726L57.1267 130.208L58.7135 130.385L58.8017 129.591Z" fill="#B90303"/>
<path d="M54.4818 127.828C54.7022 126.638 54.0851 126.021 53.2035 125.845C52.5864 125.757 52.2338 125.757 51.8371 125.801L51.793 125.14C52.1456 125.051 52.6746 125.051 53.4239 125.184C54.8785 125.492 55.5397 126.594 55.2752 128.005C55.0108 129.415 53.9529 130.385 52.5423 130.121C50.9996 129.812 50.8674 128.357 51.0437 127.476C51.0437 127.299 51.0877 127.167 51.1759 127.079L54.4818 127.828ZM51.8371 127.917C51.7049 128.49 51.793 129.371 52.7627 129.548C53.6443 129.724 54.1733 129.019 54.3496 128.401L51.8371 127.917Z" fill="#B90303"/>
<path d="M45.7984 125.845C46.2832 124.126 47.7378 123.73 48.8398 124.039C50.074 124.391 50.7793 125.625 50.3826 127.08C49.8977 128.623 48.6635 129.239 47.3411 128.886C45.9747 128.489 45.3576 127.255 45.7984 125.845ZM49.4569 126.86C49.7655 125.846 49.3688 124.92 48.5753 124.656C47.7819 124.391 46.9444 124.963 46.6359 126.065C46.4155 126.814 46.5036 127.962 47.5175 128.27C48.4872 128.535 49.1924 127.741 49.4569 126.86Z" fill="#B90303"/>
<path d="M18.954 104.995C19.2625 105.127 19.8355 105.524 20.4086 106.097C21.6869 107.464 21.7309 109.359 20.1441 110.858C18.5573 112.268 16.5737 112.224 15.1632 110.637C14.6342 110.02 14.3698 109.491 14.3257 109.271L14.9869 108.962C15.075 109.315 15.3395 109.756 15.7362 110.152C16.7941 111.299 18.2487 111.431 19.5711 110.197C20.7612 109.095 20.9375 107.684 19.8355 106.494C19.4829 106.141 19.0421 105.789 18.6895 105.612L18.954 104.995Z" fill="#B90303"/>
<path d="M14.6343 107.023L13.9731 106.185L15.4277 104.025C15.6481 103.717 16.0007 103.188 16.2211 102.879C15.8685 102.967 15.0751 103.232 14.5461 103.408L12.3863 104.069L11.7251 103.232L15.3836 100.102L15.8685 100.763L14.0613 102.218C13.6645 102.527 13.2238 102.967 12.6948 103.32C13.1356 103.144 13.5323 103.011 14.2817 102.791L16.7941 102.042L17.1909 102.527L15.7803 104.642C15.4718 105.039 15.0751 105.612 14.7665 106.009L14.8106 106.053C15.2955 105.744 15.8244 105.392 16.2211 105.083L18.1165 103.805L18.6014 104.466L14.6343 107.023Z" fill="#B90303"/>
<path d="M10.5352 96.6645C12.078 95.7395 13.3563 96.4005 13.9734 97.3705C14.6345 98.4725 14.326 99.8385 13.0918 100.632C11.7253 101.47 10.3589 101.073 9.65357 99.9265C8.86017 98.7805 9.25687 97.4145 10.5352 96.6645ZM12.5188 99.8825C13.4003 99.3535 13.797 98.4275 13.3122 97.6785C12.8714 96.9735 11.8576 96.8415 10.9319 97.4145C10.2266 97.8545 9.56547 98.6925 10.1385 99.6185C10.6674 100.5 11.7694 100.368 12.5188 99.8825Z" fill="#B90303"/>
<path d="M6.39136 93.8435L7.00846 93.4915L7.71376 94.8135L11.3724 92.9185L11.7691 93.6675L8.11046 95.5625L8.81576 96.8855L8.19866 97.2375L6.39136 93.8435Z" fill="#B90303"/>
<path d="M7.44936 92.3445C6.87636 92.5655 6.39147 92.7855 5.99477 93.0055L5.68617 92.2565L6.43557 91.8595C5.73027 91.7715 5.24536 91.3745 4.93686 90.6255C4.49606 89.5675 5.06907 88.3775 6.43557 87.8045C8.06647 87.1435 9.25656 87.8045 9.65326 88.8185C9.87366 89.3915 9.87367 90.0085 9.52107 90.4495L11.9454 89.4355L12.2981 90.2285L7.44936 92.3445ZM8.28687 91.0665C8.41907 91.0225 8.50727 90.9345 8.63947 90.8905C9.12437 90.4935 9.30067 89.8765 9.08027 89.3035C8.72767 88.4215 7.84607 88.2455 6.78817 88.6865C5.90657 89.0385 5.33357 89.8765 5.68617 90.6695C5.90657 91.2425 6.52366 91.5955 7.18486 91.4635C7.27306 91.4635 7.40526 91.4195 7.53746 91.3755L8.28687 91.0665Z" fill="#B90303"/>
<path d="M6.03907 86.1735C7.14107 85.7775 7.40557 84.8954 7.14107 84.1024C6.96477 83.4854 6.74437 83.1765 6.47987 82.9115L7.00887 82.5594C7.22927 82.7794 7.53777 83.2645 7.75817 84.0135C8.19897 85.4245 7.58187 86.5705 6.17137 87.0115C4.76087 87.4525 3.43847 87.0114 3.04177 85.6444C2.60097 84.1464 3.74697 83.3524 4.58447 83.0444C4.76087 82.9564 4.89307 83.0005 4.98117 82.9115L6.03907 86.1735ZM4.67267 83.9255C4.14367 84.1025 3.39437 84.5865 3.70297 85.5125C3.96737 86.3945 4.84897 86.4824 5.46607 86.3944L4.67267 83.9255Z" fill="#B90303"/>
<path d="M1.49878 79.2535L2.20398 79.0775L2.55668 80.5755L6.56788 79.6505L6.78818 80.4875L2.77708 81.4135L3.12968 82.9115L2.42438 83.0885L1.49878 79.2535Z" fill="#B90303"/>
<path d="M1.14624 77.4905L2.73314 77.2255C2.64494 77.0495 2.60084 76.7405 2.55684 76.4325C2.38044 75.3745 2.51274 74.1845 3.79104 73.9635C4.31994 73.8755 4.67254 74.0525 4.98114 74.2725C5.51004 74.7135 5.73044 75.5505 5.90684 76.2555C5.95084 76.7405 6.03904 77.1815 6.03904 77.5345L1.27854 78.3275L1.14624 77.4905ZM5.33374 76.7405C5.33374 76.5645 5.33374 76.3885 5.28964 76.0795C5.15744 75.4185 4.80484 74.6255 4.05544 74.7575C3.21794 74.8895 3.21794 75.7715 3.26204 76.4325C3.30614 76.6525 3.35024 76.8735 3.43834 77.0495L5.33374 76.7405Z" fill="#B90303"/>
<path d="M0.352817 70.9665C0.264717 70.6145 0.176517 69.997 0.176517 69.4681C0.132417 68.6306 0.220617 67.3082 1.23442 67.2641C1.80742 67.22 2.24822 67.6608 2.38052 68.2338C2.46862 67.5286 2.82132 66.9996 3.48242 66.9556C4.76072 66.9115 4.98111 68.4542 5.06931 69.424C5.06931 69.9529 5.11342 70.5255 5.11342 70.7905L0.352817 70.9665ZM2.29232 69.997L2.24822 69.3358C2.20422 68.6746 1.98382 68.0135 1.41072 68.0575C0.925917 68.1016 0.705517 68.4983 0.793617 69.3799C0.793617 69.6444 0.837717 69.8648 0.881817 70.0852L2.29232 69.997ZM4.49632 69.9088C4.49632 69.6444 4.49632 69.4681 4.49632 69.2036C4.45222 68.6306 4.27592 67.749 3.61472 67.7931C2.90942 67.7931 2.77722 68.5424 2.82132 69.3799L2.86532 70.0411L4.49632 69.9088Z" fill="#B90303"/>
<path d="M0.0881004 64.8836L2.1157 64.9717C2.8651 65.0158 3.394 65.0158 4.0552 65.0599C3.4822 64.7513 3.1296 64.575 2.6006 64.2224L0.1322 62.6355L0.1763 61.6217L4.9809 61.7539L4.9368 62.5914L2.9092 62.5033C2.1157 62.5033 1.719 62.4592 0.9256 62.3711C1.5427 62.7237 1.8953 62.9 2.3802 63.2086C3.1296 63.6934 4.0111 64.2224 4.8486 64.7954L4.8046 65.8092L0 65.677L0.0881004 64.8836Z" fill="#B90303"/>
<path d="M0.793583 56.1562L4.89288 56.6412L4.93698 56.1562L7.09678 56.4648L7.00868 57.1701L5.46588 57.0378L5.06918 60.3438L6.61198 60.5641L6.52378 61.2693L4.36388 61.049L4.40798 60.6523C4.14358 60.3879 3.79088 60.2116 3.48238 60.0793C2.90928 59.8589 2.29218 59.6826 1.58698 59.5944L0.352783 59.4181L0.793583 56.1562ZM1.98368 58.7569C2.60078 58.8451 3.21788 59.0214 3.74678 59.1977C4.05538 59.33 4.31988 59.5062 4.58428 59.6825L4.84878 57.4787L1.36658 57.0818L1.19028 58.6688L1.98368 58.7569Z" fill="#B90303"/>
<path d="M3.65837 54.437C4.84857 54.6574 5.46567 54.0403 5.64197 53.1587C5.73017 52.5416 5.73017 52.189 5.68607 51.7923L6.34727 51.7482C6.43537 52.1009 6.43537 52.6298 6.30317 53.3791C5.99457 54.8337 4.89267 55.4949 3.48207 55.2305C2.07157 54.966 1.10187 53.9081 1.36627 52.4976C1.67487 50.9548 3.12947 50.8226 4.01107 50.9989C4.18737 50.9989 4.31957 51.043 4.40777 51.1311L3.65837 54.437ZM3.57027 51.7923C2.99727 51.6601 2.11567 51.7482 1.93937 52.718C1.76297 53.5995 2.46827 54.1285 3.08537 54.3048L3.57027 51.7923Z" fill="#B90303"/>
<path d="M5.68645 45.7098C7.40555 46.1946 7.80224 47.6492 7.49374 48.7512C7.14104 49.9854 5.90684 50.6907 4.45224 50.294C2.90954 49.8091 2.29235 48.5749 2.64505 47.2525C2.99765 45.9302 4.23185 45.3131 5.68645 45.7098ZM4.62854 49.4124C5.64234 49.721 6.56805 49.3242 6.83255 48.5308C7.09695 47.7374 6.52395 46.8999 5.42205 46.5913C4.67265 46.371 3.52664 46.4591 3.21804 47.4729C2.99764 48.4867 3.74694 49.1479 4.62854 49.4124Z" fill="#B90303"/>
<path d="M26.5355 18.8656C26.4033 19.1742 26.0066 19.7472 25.4336 20.3202C24.0671 21.5985 22.1717 21.6426 20.673 20.0558C19.2625 18.4689 19.3066 16.4854 20.8934 15.0749C21.5105 14.5459 22.0395 14.2814 22.2599 14.2374L22.5684 14.8985C22.2158 14.9867 21.775 15.2512 21.3783 15.6479C20.2322 16.7058 20.1 18.1604 21.3342 19.4827C22.4362 20.6729 23.8467 20.8492 25.0368 19.7472C25.3895 19.3946 25.7421 18.9538 25.9184 18.6012L26.5355 18.8656Z" fill="#B90303"/>
<path d="M24.552 14.59L25.3895 13.9288L27.5494 15.3834C27.8579 15.6038 28.3869 15.9565 28.6954 16.1769C28.5632 15.7802 28.3428 15.0308 28.1665 14.5019L27.5053 12.342L28.3428 11.6808L31.4724 15.3394L30.8112 15.8242L29.3566 14.017C29.0481 13.6203 28.6073 13.1795 28.2546 12.6506C28.4309 13.1795 28.5632 13.5762 28.8277 14.2815L29.577 16.794L29.0921 17.1907L26.9763 15.7802C26.5356 15.5157 25.9185 15.0749 25.5658 14.8104L25.5217 14.8545C25.8303 15.3394 26.1829 15.8683 26.4915 16.265L27.7698 18.1604L27.1086 18.6453L24.552 14.59Z" fill="#B90303"/>
<path d="M34.8664 10.4464C35.792 11.9892 35.1309 13.2674 34.1611 13.8845C33.0592 14.5457 31.6927 14.2372 30.8993 13.003C30.0618 11.6365 30.4585 10.2701 31.6045 9.56479C32.7947 8.81549 34.117 9.16809 34.8664 10.4464ZM31.6045 12.474C32.1335 13.3556 33.0592 13.7523 33.8085 13.2674C34.5138 12.8266 34.646 11.8128 34.073 10.8872C33.6322 10.1819 32.7947 9.52069 31.869 10.0938C31.0315 10.6668 31.1638 11.6806 31.6045 12.474Z" fill="#B90303"/>
<path d="M37.6432 6.34692L37.9958 6.96402L36.6734 7.66932L38.5688 11.3278L37.7313 11.7245L35.8359 8.06602L34.5136 8.77132L34.1609 8.15413L37.6432 6.34692Z" fill="#B90303"/>
<path d="M39.1863 7.36122C38.9659 6.78822 38.7455 6.30332 38.5251 5.90662L39.2745 5.59812L39.6712 6.34742C39.7594 5.64212 40.156 5.15732 40.9053 4.84872C41.9632 4.40792 43.1534 4.98102 43.7264 6.34742C44.3876 7.97832 43.7264 9.16852 42.7126 9.56522C42.1395 9.78562 41.5224 9.78562 41.0817 9.43292L42.0956 11.8573L41.302 12.2099L39.1863 7.36122ZM40.4645 8.19872C40.5086 8.33102 40.5968 8.41912 40.6409 8.55142C41.0376 9.03622 41.6548 9.21252 42.2278 8.99212C43.1094 8.63952 43.2856 7.75792 42.8448 6.70002C42.4922 5.81852 41.6548 5.24542 40.8614 5.59812C40.2883 5.81852 39.9356 6.43562 40.0678 7.09672C40.0678 7.18492 40.112 7.31712 40.1561 7.44942L40.4645 8.19872Z" fill="#B90303"/>
<path d="M45.3576 6.03892C45.7543 7.14092 46.6358 7.40532 47.4293 7.14092C48.0464 6.96452 48.3549 6.74412 48.6194 6.47972L48.972 7.00862C48.7516 7.22902 48.2668 7.53762 47.5174 7.75802C46.1069 8.19882 44.9608 7.58162 44.5201 6.17112C44.0793 4.76062 44.5201 3.43822 45.8865 3.04152C47.3852 2.60072 48.1786 3.74682 48.4872 4.58432C48.5753 4.76062 48.5312 4.89282 48.6194 4.98102L45.3576 6.03892ZM47.6497 4.62842C47.4733 4.09942 46.9885 3.35012 46.0628 3.65862C45.1812 3.92312 45.0931 4.80472 45.1812 5.42182L47.6497 4.62842Z" fill="#B90303"/>
<path d="M52.2335 1.45422L52.4098 2.15952L50.9112 2.51212L51.8368 6.52332L50.9993 6.74372L50.0737 2.73252L48.575 3.08512L48.3987 2.37992L52.2335 1.45422Z" fill="#B90303"/>
<path d="M54.0847 1.10156L54.3492 2.68846C54.5255 2.60026 54.834 2.55616 55.1426 2.51206C56.2005 2.33576 57.3906 2.46806 57.611 3.74636C57.6992 4.27526 57.5229 4.62786 57.3025 4.93646C56.8617 5.46536 56.0242 5.68576 55.3189 5.86206C54.834 5.90616 54.3933 5.99436 54.0406 5.99436L53.2031 1.27786L54.0847 1.10156ZM54.7459 5.28906C54.9222 5.28906 55.0985 5.28906 55.4071 5.24496C56.0683 5.11276 56.8617 4.76016 56.7294 4.01076C56.5972 3.17326 55.7156 3.17326 55.0544 3.21736C54.834 3.26146 54.6136 3.30556 54.4373 3.39366L54.7459 5.28906Z" fill="#B90303"/>
<path d="M60.6086 0.308455C60.9612 0.220255 61.5783 0.132055 62.1073 0.132055C62.9448 0.0880555 64.2671 0.176155 64.3112 1.18995C64.3553 1.76305 63.9145 2.20386 63.3415 2.33606C64.0467 2.42426 64.5757 2.77685 64.6198 3.43805C64.6638 4.71635 63.1211 4.93676 62.1513 5.02486C61.6224 5.02486 61.0494 5.06895 60.7849 5.06895L60.6086 0.308455ZM61.5342 2.20385L62.1954 2.15975C62.8566 2.11565 63.5178 1.89525 63.4737 1.32225C63.4296 0.837354 63.0329 0.616955 62.1513 0.705155C61.8869 0.705155 61.6665 0.749255 61.4461 0.793255L61.5342 2.20385ZM61.6665 4.45185C61.931 4.45185 62.1073 4.45185 62.3717 4.45185C62.9448 4.40775 63.8263 4.23146 63.7823 3.57026C63.7823 2.86496 63.0329 2.73276 62.1954 2.77686L61.5342 2.82095L61.6665 4.45185Z" fill="#B90303"/>
<path d="M66.6473 0.0881996L66.5591 2.1158C66.5151 2.8651 66.5151 3.3941 66.471 4.0553C66.7795 3.4822 66.9559 3.1296 67.3085 2.6007L68.8953 0.1322L69.9091 0.1763L69.7769 4.9809L68.9394 4.9368L69.0276 2.9092C69.0276 2.1158 69.0716 1.7191 69.1598 0.925701C68.8072 1.5428 68.6309 1.8954 68.3223 2.3803C67.8374 3.1296 67.3085 4.0112 66.7355 4.8487L65.7217 4.8046L65.8539 0L66.6473 0.0881996Z" fill="#B90303"/>
<path d="M75.3316 0.749329L74.8466 4.84873L75.3316 4.89273L75.0226 7.05263L74.3176 6.96453L74.5376 5.50983L71.2316 5.11313L71.0116 6.65593L70.3066 6.56773L70.5266 4.40793L70.9236 4.45203C71.1876 4.18753 71.3646 3.83483 71.4966 3.52633C71.7166 2.95333 71.8936 2.33623 71.9816 1.63093L72.1576 0.396729L75.3316 0.749329ZM72.7746 1.89543C72.6866 2.51253 72.5106 3.12963 72.3336 3.65853C72.2016 3.96713 72.0256 4.23163 71.8486 4.49603L74.0526 4.76053L74.4496 1.27833L72.8626 1.10203L72.7746 1.89543Z" fill="#B90303"/>
<path d="M77.0936 3.65815C76.8736 4.84825 77.4906 5.46535 78.3726 5.64165C78.9896 5.72985 79.3425 5.72985 79.7385 5.68575L79.7825 6.34695C79.4305 6.43505 78.9016 6.43506 78.1516 6.30286C76.6976 5.99436 76.0366 4.89235 76.3006 3.48185C76.5656 2.07125 77.6225 1.10155 79.0335 1.36605C80.5765 1.67455 80.7085 3.12915 80.5325 4.01075C80.5325 4.18705 80.4886 4.31935 80.3996 4.40745L77.0936 3.65815ZM79.7385 3.56995C79.8705 2.99695 79.7826 2.11535 78.8136 1.93905C77.9316 1.76275 77.4025 2.46796 77.2265 3.08506L79.7385 3.56995Z" fill="#B90303"/>
<path d="M85.7776 5.64202C85.2926 7.36112 83.8376 7.75782 82.7366 7.44922C81.5016 7.09662 80.7966 5.86242 81.1936 4.40782C81.6786 2.86502 82.9126 2.24792 84.2346 2.60062C85.6016 2.99732 86.2186 4.23152 85.7776 5.64202ZM82.1186 4.62822C81.8106 5.64202 82.2076 6.56772 83.0006 6.83212C83.7936 7.09662 84.6316 6.52362 84.9396 5.42162C85.1606 4.67232 85.0726 3.52622 84.0586 3.21772C83.0446 2.90912 82.3396 3.70252 82.1186 4.62822Z" fill="#B90303"/>
<path d="M26.5355 18.8656C26.4033 19.1742 26.0066 19.7472 25.4336 20.3202C24.0671 21.5985 22.1717 21.6426 20.673 20.0558C19.2625 18.4689 19.3066 16.4854 20.8934 15.0749C21.5105 14.5459 22.0395 14.2814 22.2599 14.2374L22.5684 14.8985C22.2158 14.9867 21.775 15.2512 21.3783 15.6479C20.2322 16.7058 20.1 18.1604 21.3342 19.4827C22.4362 20.6729 23.8467 20.8492 25.0368 19.7472C25.3895 19.3946 25.7421 18.9538 25.9184 18.6012L26.5355 18.8656Z" fill="#B90303"/>
<path d="M24.552 14.59L25.3895 13.9288L27.5494 15.3834C27.8579 15.6038 28.3869 15.9565 28.6954 16.1769C28.5632 15.7802 28.3428 15.0308 28.1665 14.5019L27.5053 12.342L28.3428 11.6808L31.4724 15.3394L30.8112 15.8242L29.3566 14.017C29.0481 13.6203 28.6073 13.1795 28.2546 12.6506C28.4309 13.1795 28.5632 13.5762 28.8277 14.2815L29.577 16.794L29.0921 17.1907L26.9763 15.7802C26.5356 15.5157 25.9185 15.0749 25.5658 14.8104L25.5217 14.8545C25.8303 15.3394 26.1829 15.8683 26.4915 16.265L27.7698 18.1604L27.1086 18.6453L24.552 14.59Z" fill="#B90303"/>
<path d="M34.8664 10.4464C35.792 11.9892 35.1309 13.2674 34.1611 13.8845C33.0592 14.5457 31.6927 14.2372 30.8993 13.003C30.0618 11.6365 30.4585 10.2701 31.6045 9.56479C32.7947 8.81549 34.117 9.16809 34.8664 10.4464ZM31.6045 12.474C32.1335 13.3556 33.0592 13.7523 33.8085 13.2674C34.5138 12.8266 34.646 11.8128 34.073 10.8872C33.6322 10.1819 32.7947 9.52069 31.869 10.0938C31.0315 10.6668 31.1638 11.6806 31.6045 12.474Z" fill="#B90303"/>
<path d="M37.6432 6.34692L37.9958 6.96402L36.6734 7.66932L38.5688 11.3278L37.7313 11.7245L35.8359 8.06602L34.5136 8.77132L34.1609 8.15413L37.6432 6.34692Z" fill="#B90303"/>
<path d="M39.1863 7.36122C38.9659 6.78822 38.7455 6.30332 38.5251 5.90662L39.2745 5.59812L39.6712 6.34742C39.7594 5.64212 40.156 5.15732 40.9053 4.84872C41.9632 4.40792 43.1534 4.98102 43.7264 6.34742C44.3876 7.97832 43.7264 9.16852 42.7126 9.56522C42.1395 9.78562 41.5224 9.78562 41.0817 9.43292L42.0956 11.8573L41.302 12.2099L39.1863 7.36122ZM40.4645 8.19872C40.5086 8.33102 40.5968 8.41912 40.6409 8.55142C41.0376 9.03622 41.6548 9.21252 42.2278 8.99212C43.1094 8.63952 43.2856 7.75792 42.8448 6.70002C42.4922 5.81852 41.6548 5.24542 40.8614 5.59812C40.2883 5.81852 39.9356 6.43562 40.0678 7.09672C40.0678 7.18492 40.112 7.31712 40.1561 7.44942L40.4645 8.19872Z" fill="#B90303"/>
<path d="M45.3576 6.03892C45.7543 7.14092 46.6358 7.40532 47.4293 7.14092C48.0464 6.96452 48.3549 6.74412 48.6194 6.47972L48.972 7.00862C48.7516 7.22902 48.2668 7.53762 47.5174 7.75802C46.1069 8.19882 44.9608 7.58162 44.5201 6.17112C44.0793 4.76062 44.5201 3.43822 45.8865 3.04152C47.3852 2.60072 48.1786 3.74682 48.4872 4.58432C48.5753 4.76062 48.5312 4.89282 48.6194 4.98102L45.3576 6.03892ZM47.6497 4.62842C47.4733 4.09942 46.9885 3.35012 46.0628 3.65862C45.1812 3.92312 45.0931 4.80472 45.1812 5.42182L47.6497 4.62842Z" fill="#B90303"/>
<path d="M52.2335 1.45422L52.4098 2.15952L50.9112 2.51212L51.8368 6.52332L50.9993 6.74372L50.0737 2.73252L48.575 3.08512L48.3987 2.37992L52.2335 1.45422Z" fill="#B90303"/>
<path d="M54.0847 1.10156L54.3492 2.68846C54.5255 2.60026 54.834 2.55616 55.1426 2.51206C56.2005 2.33576 57.3906 2.46806 57.611 3.74636C57.6992 4.27526 57.5229 4.62786 57.3025 4.93646C56.8617 5.46536 56.0242 5.68576 55.3189 5.86206C54.834 5.90616 54.3933 5.99436 54.0406 5.99436L53.2031 1.27786L54.0847 1.10156ZM54.7459 5.28906C54.9222 5.28906 55.0985 5.28906 55.4071 5.24496C56.0683 5.11276 56.8617 4.76016 56.7294 4.01076C56.5972 3.17326 55.7156 3.17326 55.0544 3.21736C54.834 3.26146 54.6136 3.30556 54.4373 3.39366L54.7459 5.28906Z" fill="#B90303"/>
<path d="M60.6086 0.308455C60.9612 0.220255 61.5783 0.132055 62.1073 0.132055C62.9448 0.0880555 64.2671 0.176155 64.3112 1.18995C64.3553 1.76305 63.9145 2.20386 63.3415 2.33606C64.0467 2.42426 64.5757 2.77685 64.6198 3.43805C64.6638 4.71635 63.1211 4.93676 62.1513 5.02486C61.6224 5.02486 61.0494 5.06895 60.7849 5.06895L60.6086 0.308455ZM61.5342 2.20385L62.1954 2.15975C62.8566 2.11565 63.5178 1.89525 63.4737 1.32225C63.4296 0.837354 63.0329 0.616955 62.1513 0.705155C61.8869 0.705155 61.6665 0.749255 61.4461 0.793255L61.5342 2.20385ZM61.6665 4.45185C61.931 4.45185 62.1073 4.45185 62.3717 4.45185C62.9448 4.40775 63.8263 4.23146 63.7823 3.57026C63.7823 2.86496 63.0329 2.73276 62.1954 2.77686L61.5342 2.82095L61.6665 4.45185Z" fill="#B90303"/>
<path d="M66.6473 0.0881996L66.5591 2.1158C66.5151 2.8651 66.5151 3.3941 66.471 4.0553C66.7795 3.4822 66.9559 3.1296 67.3085 2.6007L68.8953 0.1322L69.9091 0.1763L69.7769 4.9809L68.9394 4.9368L69.0276 2.9092C69.0276 2.1158 69.0716 1.7191 69.1598 0.925701C68.8072 1.5428 68.6309 1.8954 68.3223 2.3803C67.8374 3.1296 67.3085 4.0112 66.7355 4.8487L65.7217 4.8046L65.8539 0L66.6473 0.0881996Z" fill="#B90303"/>
<path d="M75.3316 0.749329L74.8466 4.84873L75.3316 4.89273L75.0226 7.05263L74.3176 6.96453L74.5376 5.50983L71.2316 5.11313L71.0116 6.65593L70.3066 6.56773L70.5266 4.40793L70.9236 4.45203C71.1876 4.18753 71.3646 3.83483 71.4966 3.52633C71.7166 2.95333 71.8936 2.33623 71.9816 1.63093L72.1576 0.396729L75.3316 0.749329ZM72.7746 1.89543C72.6866 2.51253 72.5106 3.12963 72.3336 3.65853C72.2016 3.96713 72.0256 4.23163 71.8486 4.49603L74.0526 4.76053L74.4496 1.27833L72.8626 1.10203L72.7746 1.89543Z" fill="#B90303"/>
<path d="M77.0936 3.65815C76.8736 4.84825 77.4906 5.46535 78.3726 5.64165C78.9896 5.72985 79.3425 5.72985 79.7385 5.68575L79.7825 6.34695C79.4305 6.43505 78.9016 6.43506 78.1516 6.30286C76.6976 5.99436 76.0366 4.89235 76.3006 3.48185C76.5656 2.07125 77.6225 1.10155 79.0335 1.36605C80.5765 1.67455 80.7085 3.12915 80.5325 4.01075C80.5325 4.18705 80.4886 4.31935 80.3996 4.40745L77.0936 3.65815ZM79.7385 3.56995C79.8705 2.99695 79.7826 2.11535 78.8136 1.93905C77.9316 1.76275 77.4025 2.46796 77.2265 3.08506L79.7385 3.56995Z" fill="#B90303"/>
<path d="M85.7776 5.64202C85.2926 7.36112 83.8376 7.75782 82.7366 7.44922C81.5016 7.09662 80.7966 5.86242 81.1936 4.40782C81.6786 2.86502 82.9126 2.24792 84.2346 2.60062C85.6016 2.99732 86.2186 4.23152 85.7776 5.64202ZM82.1186 4.62822C81.8106 5.64202 82.2076 6.56772 83.0006 6.83212C83.7936 7.09662 84.6316 6.52362 84.9396 5.42162C85.1606 4.67232 85.0726 3.52622 84.0586 3.21772C83.0446 2.90912 82.3396 3.70252 82.1186 4.62822Z" fill="#B90303"/>
</svg>
