<svg width="133" height="133" viewBox="0 0 133 133" fill="none" xmlns="http://www.w3.org/2000/svg">
<path d="M67.1384 116.444C94.369 116.444 116.444 94.3694 116.444 67.1388C116.444 39.9082 94.369 17.8334 67.1384 17.8334C39.9078 17.8334 17.833 39.9082 17.833 67.1388C17.833 94.3694 39.9078 116.444 67.1384 116.444Z" fill="#F1F1F1" stroke="#FC0000" stroke-width="0.5"/>
<path d="M86 67.0001L57.4998 82.589V51.4116L86 67.0001Z" fill="#FC0000"/>
<path d="M113.415 27.2975C113.106 27.1653 112.533 26.7686 111.96 26.1955C110.682 24.8291 110.638 22.9337 112.225 21.435C113.812 20.0245 115.795 20.0686 117.206 21.6554C117.735 22.2725 117.999 22.8015 118.043 23.0219L117.382 23.3304C117.294 22.9778 117.029 22.537 116.633 22.1403C115.575 20.9942 114.12 20.862 112.798 22.0962C111.608 23.1982 111.431 24.6087 112.533 25.7988C112.886 26.1515 113.327 26.5041 113.679 26.6804L113.415 27.2975Z" fill="#FC0000"/>
<path d="M117.735 25.2701L118.396 26.1076L116.941 28.2674C116.721 28.576 116.368 29.1049 116.148 29.4135C116.5 29.3253 117.294 29.0609 117.823 28.8846L119.983 28.2234L120.644 29.0609L116.985 32.1905L116.5 31.5293L118.308 30.0747C118.704 29.7661 119.145 29.3253 119.674 28.9727C119.233 29.149 118.837 29.2813 118.087 29.5017L115.575 30.251L115.178 29.7661L116.589 27.6503C116.897 27.2536 117.294 26.6806 117.602 26.2839L117.558 26.2398C117.073 26.5484 116.544 26.901 116.148 27.2096L114.252 28.4878L113.767 27.8267L117.735 25.2701Z" fill="#FC0000"/>
<path d="M121.878 35.5841C120.335 36.5098 119.057 35.8486 118.44 34.8789C117.779 33.7769 118.087 32.4104 119.321 31.617C120.688 30.7795 122.054 31.1762 122.76 32.3223C123.509 33.5124 123.156 34.8348 121.878 35.5841ZM119.806 32.3664C118.925 32.8953 118.528 33.821 119.013 34.5703C119.454 35.2756 120.468 35.4078 121.393 34.8348C122.098 34.394 122.76 33.5565 122.187 32.6308C121.702 31.7933 120.644 31.8815 119.806 32.3664Z" fill="#FC0000"/>
<path d="M125.978 38.4498L125.36 38.8024L124.655 37.48L120.997 39.3754L120.6 38.6261L124.258 36.7307L123.553 35.4083L124.17 35.0557L125.978 38.4498Z" fill="#FC0000"/>
<path d="M124.92 39.9484C125.493 39.728 125.978 39.5076 126.374 39.2872L126.683 40.0365L125.934 40.4332C126.639 40.5214 127.124 40.9181 127.432 41.6674C127.873 42.7253 127.3 43.9155 125.934 44.4885C124.303 45.1497 123.113 44.4885 122.716 43.4747C122.496 42.9017 122.496 42.2846 122.848 41.8438L120.424 42.8576L120.071 42.0642L124.92 39.9484ZM124.082 41.2267C123.95 41.2707 123.862 41.3589 123.73 41.403C123.245 41.7997 123.069 42.4168 123.289 42.9898C123.642 43.8714 124.523 44.0477 125.581 43.6069C126.463 43.2543 127.036 42.4168 126.683 41.6234C126.463 41.0503 125.846 40.6977 125.184 40.8299C125.096 40.8299 124.964 40.874 124.832 40.9181L124.082 41.2267Z" fill="#FC0000"/>
<path d="M126.33 46.1192C125.228 46.5159 124.963 47.3975 125.228 48.1909C125.404 48.808 125.625 49.1165 125.889 49.381L125.36 49.7336C125.14 49.5133 124.831 49.0284 124.611 48.279C124.17 46.8685 124.787 45.7225 126.198 45.2817C127.608 44.8409 128.93 45.2817 129.327 46.6481C129.768 48.1468 128.622 48.9402 127.784 49.2488C127.608 49.3369 127.476 49.2929 127.388 49.381L126.33 46.1192ZM127.696 48.3672C128.225 48.1909 128.975 47.706 128.666 46.7804C128.402 45.8988 127.52 45.8106 126.903 45.8988L127.696 48.3672Z" fill="#FC0000"/>
<path d="M130.87 53.0396L130.165 53.2159L129.812 51.7172L125.801 52.6429L125.581 51.8054L129.592 50.8797L129.239 49.381L129.945 49.2047L130.87 53.0396Z" fill="#FC0000"/>
<path d="M131.223 54.803L129.636 55.0675C129.724 55.2438 129.768 55.5523 129.812 55.8609C129.989 56.9188 129.856 58.1089 128.578 58.3293C128.049 58.4175 127.696 58.2412 127.388 58.0208C126.859 57.58 126.639 56.7425 126.462 56.0372C126.418 55.5523 126.33 55.1116 126.33 54.7589L131.09 53.9655L131.223 54.803ZM127.079 55.5083C127.079 55.6846 127.079 55.8609 127.123 56.1695C127.256 56.8306 127.608 57.6241 128.358 57.4918C129.195 57.3596 129.195 56.478 129.151 55.8168C129.107 55.5964 129.063 55.376 128.975 55.1997L127.079 55.5083Z" fill="#FC0000"/>
<path d="M132.016 61.3268C132.105 61.6795 132.193 62.2966 132.193 62.8255C132.237 63.663 132.149 64.9854 131.135 65.0295C130.562 65.0736 130.121 64.6328 129.989 64.0597C129.901 64.765 129.548 65.294 128.887 65.338C127.609 65.3821 127.388 63.8394 127.3 62.8696C127.3 62.3407 127.256 61.7676 127.256 61.5032L132.016 61.3268ZM127.873 62.3847C127.873 62.6492 127.873 62.8255 127.873 63.09C127.917 63.663 128.093 64.5446 128.755 64.5005C129.46 64.5005 129.592 63.7512 129.548 62.9137L129.504 62.2525L127.873 62.3847ZM130.077 62.2966L130.121 62.9578C130.165 63.619 130.386 64.2801 130.959 64.2361C131.443 64.192 131.664 63.7953 131.576 62.9137C131.576 62.6492 131.532 62.4288 131.488 62.2084L130.077 62.2966Z" fill="#FC0000"/>
<path d="M132.281 67.4096L130.253 67.3215C129.504 67.2774 128.975 67.2774 128.314 67.2333C128.887 67.5419 129.24 67.7182 129.769 68.0708L132.237 69.6576L132.193 70.6715L127.388 70.5392L127.432 69.7017L129.46 69.7899C130.253 69.7899 130.65 69.834 131.444 69.9221C130.826 69.5695 130.474 69.3932 129.989 69.0846C129.24 68.5998 128.358 68.0708 127.521 67.4978L127.565 66.484L132.281 66.6162V67.4096Z" fill="#FC0000"/>
<path d="M131.576 76.137L127.476 75.652L127.432 76.137L125.272 75.828L125.36 75.123L126.903 75.255L127.3 71.949L125.757 71.729L125.845 71.024L128.005 71.244L127.961 71.641C128.226 71.905 128.578 72.082 128.887 72.214C129.46 72.434 130.077 72.611 130.782 72.699L132.016 72.875L131.576 76.137ZM130.429 73.492C129.812 73.404 129.195 73.228 128.666 73.051C128.358 72.919 128.093 72.743 127.829 72.567L127.564 74.77L131.047 75.167L131.223 73.58L130.429 73.492Z" fill="#FC0000"/>
<path d="M128.666 77.8119C127.476 77.5919 126.859 78.2089 126.683 79.0899C126.594 79.7069 126.594 80.0599 126.639 80.4569L125.977 80.5009C125.889 80.1479 125.889 79.6189 126.021 78.8699C126.33 77.4149 127.432 76.7539 128.843 77.0189C130.253 77.2829 131.223 78.3409 130.958 79.7509C130.65 81.2939 129.195 81.4259 128.314 81.2499C128.137 81.2499 128.005 81.2059 127.917 81.1179L128.666 77.8119ZM128.798 80.5009C129.371 80.6329 130.253 80.5449 130.429 79.5749C130.606 78.6939 129.9 78.1649 129.283 77.9879L128.798 80.5009Z" fill="#FC0000"/>
<path d="M126.727 86.54C125.007 86.055 124.611 84.6 124.919 83.498C125.272 82.264 126.506 81.559 127.961 81.955C129.504 82.44 130.121 83.675 129.768 84.997C129.327 86.319 128.137 86.98 126.727 86.54ZM127.696 82.837C126.682 82.528 125.757 82.925 125.492 83.719C125.228 84.512 125.801 85.349 126.903 85.658C127.652 85.878 128.798 85.79 129.107 84.776C129.415 83.763 128.578 83.101 127.696 82.837Z" fill="#FC0000"/>
<path d="M105.834 113.428C105.966 113.119 106.363 112.546 106.936 111.973C108.302 110.695 110.197 110.651 111.696 112.238C113.107 113.825 113.063 115.808 111.476 117.219C110.859 117.748 110.33 118.012 110.109 118.056L109.801 117.395C110.153 117.307 110.594 117.042 110.991 116.646C112.137 115.588 112.269 114.133 111.035 112.811C109.933 111.621 108.522 111.444 107.332 112.546C106.98 112.899 106.627 113.34 106.451 113.692L105.834 113.428Z" fill="#FC0000"/>
<path d="M107.817 117.704L106.98 118.365L104.82 116.91C104.511 116.69 103.982 116.337 103.674 116.117C103.762 116.469 104.027 117.263 104.203 117.792L104.864 119.952L104.027 120.613L100.897 116.954L101.558 116.469L103.013 118.277C103.321 118.673 103.762 119.114 104.115 119.643C103.938 119.202 103.806 118.806 103.586 118.056L102.836 115.544L103.321 115.147L105.437 116.558C105.834 116.866 106.407 117.263 106.804 117.571L106.848 117.527C106.539 117.042 106.186 116.514 105.878 116.117L104.6 114.221L105.261 113.737L107.817 117.704Z" fill="#FC0000"/>
<path d="M97.502 121.847C96.577 120.304 97.238 119.026 98.208 118.409C99.31 117.748 100.676 118.056 101.47 119.291C102.307 120.657 101.91 122.023 100.764 122.729C99.574 123.478 98.296 123.081 97.502 121.847ZM100.764 119.82C100.235 118.938 99.31 118.541 98.56 119.026C97.855 119.467 97.723 120.481 98.296 121.406C98.737 122.112 99.574 122.773 100.5 122.2C101.337 121.627 101.249 120.569 100.764 119.82Z" fill="#FC0000"/>
<path d="M94.726 125.946L94.373 125.329L95.696 124.624L93.8 120.966L94.549 120.569L96.445 124.227L97.767 123.522L98.12 124.139L94.726 125.946Z" fill="#FC0000"/>
<path d="M93.183 124.933C93.404 125.506 93.624 125.991 93.845 126.387L93.095 126.696L92.698 125.946C92.61 126.652 92.214 127.137 91.464 127.445C90.406 127.886 89.216 127.313 88.643 125.946C87.982 124.316 88.643 123.125 89.657 122.729C90.23 122.508 90.847 122.508 91.288 122.861L90.274 120.437L91.068 120.084L93.183 124.933ZM91.861 124.051C91.817 123.919 91.729 123.831 91.685 123.698C91.288 123.214 90.671 123.037 90.098 123.258C89.216 123.61 89.04 124.492 89.481 125.55C89.833 126.431 90.671 127.004 91.464 126.652C92.037 126.431 92.39 125.814 92.258 125.153C92.258 125.065 92.214 124.933 92.17 124.8L91.861 124.051Z" fill="#FC0000"/>
<path d="M87.0119 126.255C86.6159 125.153 85.7339 124.889 84.9399 125.153C84.3229 125.329 84.0149 125.55 83.7499 125.814L83.3979 125.285C83.6179 125.065 84.1029 124.756 84.8519 124.536C86.2629 124.095 87.4089 124.712 87.8499 126.123C88.2909 127.533 87.8499 128.856 86.4829 129.252C84.9849 129.693 84.1909 128.547 83.8829 127.71C83.7939 127.533 83.8389 127.401 83.7499 127.313L87.0119 126.255ZM84.7639 127.622C84.9409 128.15 85.4249 128.9 86.3509 128.591C87.2329 128.327 87.3209 127.445 87.2329 126.828L84.7639 127.622Z" fill="#FC0000"/>
<path d="M80.136 130.839L79.959 130.134L81.458 129.781L80.532 125.77L81.37 125.55L82.295 129.561L83.794 129.208L83.97 129.913L80.136 130.839Z" fill="#FC0000"/>
<path d="M78.328 131.148L78.064 129.561C77.887 129.649 77.5789 129.693 77.2699 129.737C76.2119 129.914 75.022 129.781 74.802 128.503C74.714 127.974 74.8899 127.621 75.1099 127.313C75.5509 126.784 76.389 126.564 77.094 126.387C77.579 126.343 78.02 126.255 78.372 126.255L79.1659 131.016L78.328 131.148ZM77.623 127.004C77.447 127.004 77.2699 127.004 76.9619 127.048C76.3009 127.181 75.5069 127.533 75.6389 128.283C75.7719 129.12 76.653 129.12 77.314 129.076C77.535 129.032 77.7549 128.988 77.9319 128.9L77.623 127.004Z" fill="#FC0000"/>
<path d="M71.761 131.985C71.408 132.073 70.7909 132.162 70.262 132.162C69.4245 132.206 68.1021 132.117 68.058 131.104C68.0139 130.531 68.4547 130.09 69.0278 129.958C68.3225 129.869 67.7935 129.517 67.7495 128.856C67.7054 127.577 69.2481 127.357 70.2179 127.269C70.7468 127.269 71.32 127.225 71.584 127.225L71.761 131.985ZM70.7468 127.798C70.4824 127.798 70.306 127.798 70.0416 127.798C69.4685 127.842 68.587 128.018 68.631 128.679C68.631 129.385 69.3804 129.517 70.2179 129.473L70.8791 129.429L70.7468 127.798ZM70.8791 130.046L70.2179 130.09C69.5567 130.134 68.8955 130.354 68.9396 130.927C68.9837 131.412 69.3804 131.633 70.262 131.544C70.5264 131.544 70.7468 131.5 70.9672 131.456L70.8791 130.046Z" fill="#FC0000"/>
<path d="M65.7219 132.206L65.81 130.178C65.8541 129.429 65.8541 128.9 65.8982 128.238C65.5896 128.811 65.4133 129.164 65.0607 129.693L63.4738 132.161L62.46 132.117L62.5923 127.313L63.4298 127.357L63.3416 129.385C63.3416 130.178 63.2975 130.575 63.2094 131.368C63.562 130.751 63.7383 130.398 64.0469 129.913C64.5317 129.164 65.0607 128.283 65.6337 127.445L66.6475 127.489L66.5153 132.294L65.7219 132.206Z" fill="#FC0000"/>
<path d="M57.0383 131.544L57.5232 127.445L57.0383 127.401L57.3469 125.241L58.0521 125.329L57.9199 126.872L61.2258 127.269L61.4462 125.726L62.1515 125.814L61.9311 127.974L61.5344 127.93C61.2699 128.194 61.0936 128.547 60.9613 128.856C60.7409 129.429 60.5646 130.046 60.4765 130.751L60.3001 131.985L57.0383 131.544ZM59.5949 130.398C59.683 129.781 59.8594 129.164 60.0357 128.635C60.1679 128.327 60.3442 128.062 60.5205 127.798L58.3166 127.533L57.9199 131.015L59.5067 131.192L59.5949 130.398Z" fill="#FC0000"/>
<path d="M55.275 128.635C55.4954 127.445 54.8783 126.828 53.9967 126.652C53.3796 126.564 53.027 126.564 52.6303 126.608L52.5862 125.947C52.9388 125.858 53.4678 125.858 54.2171 125.991C55.6717 126.299 56.3329 127.401 56.0685 128.812C55.804 130.222 54.7461 131.192 53.3356 130.928C51.7928 130.619 51.6606 129.164 51.8369 128.283C51.8369 128.106 51.881 127.974 51.9691 127.886L55.275 128.635ZM52.6303 128.724C52.4981 129.297 52.5862 130.178 53.556 130.355C54.4375 130.531 54.9665 129.826 55.1428 129.208L52.6303 128.724Z" fill="#FC0000"/>
<path d="M46.5916 126.652C47.0764 124.933 48.5311 124.536 49.633 124.845C50.8672 125.197 51.5725 126.431 51.1758 127.886C50.6909 129.429 49.4567 130.046 48.1343 129.693C46.7679 129.296 46.1508 128.062 46.5916 126.652ZM50.2501 127.666C50.5587 126.652 50.162 125.726 49.3686 125.462C48.5751 125.197 47.7376 125.77 47.4291 126.872C47.2087 127.621 47.2968 128.768 48.3107 129.076C49.2804 129.341 49.9857 128.547 50.2501 127.666Z" fill="#FC0000"/>
<path d="M105.834 113.428C105.966 113.119 106.363 112.546 106.936 111.973C108.302 110.695 110.197 110.651 111.696 112.238C113.107 113.825 113.063 115.808 111.476 117.219C110.859 117.748 110.33 118.012 110.109 118.056L109.801 117.395C110.153 117.307 110.594 117.042 110.991 116.646C112.137 115.588 112.269 114.133 111.035 112.811C109.933 111.621 108.522 111.444 107.332 112.546C106.98 112.899 106.627 113.34 106.451 113.692L105.834 113.428Z" fill="#FC0000"/>
<path d="M107.817 117.704L106.98 118.365L104.82 116.91C104.511 116.69 103.982 116.337 103.674 116.117C103.762 116.469 104.027 117.263 104.203 117.792L104.864 119.952L104.027 120.613L100.897 116.954L101.558 116.469L103.013 118.277C103.321 118.673 103.762 119.114 104.115 119.643C103.938 119.202 103.806 118.806 103.586 118.056L102.836 115.544L103.321 115.147L105.437 116.558C105.834 116.866 106.407 117.263 106.804 117.571L106.848 117.527C106.539 117.042 106.186 116.514 105.878 116.117L104.6 114.221L105.261 113.737L107.817 117.704Z" fill="#FC0000"/>
<path d="M97.502 121.847C96.577 120.304 97.238 119.026 98.208 118.409C99.31 117.748 100.676 118.056 101.47 119.291C102.307 120.657 101.91 122.023 100.764 122.729C99.574 123.478 98.296 123.081 97.502 121.847ZM100.764 119.82C100.235 118.938 99.31 118.541 98.56 119.026C97.855 119.467 97.723 120.481 98.296 121.406C98.737 122.112 99.574 122.773 100.5 122.2C101.337 121.627 101.249 120.569 100.764 119.82Z" fill="#FC0000"/>
<path d="M94.726 125.946L94.373 125.329L95.696 124.624L93.8 120.966L94.549 120.569L96.445 124.227L97.767 123.522L98.12 124.139L94.726 125.946Z" fill="#FC0000"/>
<path d="M93.183 124.933C93.404 125.506 93.624 125.991 93.845 126.387L93.095 126.696L92.698 125.946C92.61 126.652 92.214 127.137 91.464 127.445C90.406 127.886 89.216 127.313 88.643 125.946C87.982 124.316 88.643 123.125 89.657 122.729C90.23 122.508 90.847 122.508 91.288 122.861L90.274 120.437L91.068 120.084L93.183 124.933ZM91.861 124.051C91.817 123.919 91.729 123.831 91.685 123.698C91.288 123.214 90.671 123.037 90.098 123.258C89.216 123.61 89.04 124.492 89.481 125.55C89.833 126.431 90.671 127.004 91.464 126.652C92.037 126.431 92.39 125.814 92.258 125.153C92.258 125.065 92.214 124.933 92.17 124.8L91.861 124.051Z" fill="#FC0000"/>
<path d="M87.0119 126.255C86.6159 125.153 85.7339 124.889 84.9399 125.153C84.3229 125.329 84.0149 125.55 83.7499 125.814L83.3979 125.285C83.6179 125.065 84.1029 124.756 84.8519 124.536C86.2629 124.095 87.4089 124.712 87.8499 126.123C88.2909 127.533 87.8499 128.856 86.4829 129.252C84.9849 129.693 84.1909 128.547 83.8829 127.71C83.7939 127.533 83.8389 127.401 83.7499 127.313L87.0119 126.255ZM84.7639 127.622C84.9409 128.15 85.4249 128.9 86.3509 128.591C87.2329 128.327 87.3209 127.445 87.2329 126.828L84.7639 127.622Z" fill="#FC0000"/>
<path d="M80.136 130.839L79.959 130.134L81.458 129.781L80.532 125.77L81.37 125.55L82.295 129.561L83.794 129.208L83.97 129.913L80.136 130.839Z" fill="#FC0000"/>
<path d="M78.328 131.148L78.064 129.561C77.887 129.649 77.5789 129.693 77.2699 129.737C76.2119 129.914 75.022 129.781 74.802 128.503C74.714 127.974 74.8899 127.621 75.1099 127.313C75.5509 126.784 76.389 126.564 77.094 126.387C77.579 126.343 78.02 126.255 78.372 126.255L79.1659 131.016L78.328 131.148ZM77.623 127.004C77.447 127.004 77.2699 127.004 76.9619 127.048C76.3009 127.181 75.5069 127.533 75.6389 128.283C75.7719 129.12 76.653 129.12 77.314 129.076C77.535 129.032 77.7549 128.988 77.9319 128.9L77.623 127.004Z" fill="#FC0000"/>
<path d="M71.761 131.985C71.408 132.073 70.7909 132.162 70.262 132.162C69.4245 132.206 68.1021 132.117 68.058 131.104C68.0139 130.531 68.4547 130.09 69.0278 129.958C68.3225 129.869 67.7935 129.517 67.7495 128.856C67.7054 127.577 69.2481 127.357 70.2179 127.269C70.7468 127.269 71.32 127.225 71.584 127.225L71.761 131.985ZM70.7468 127.798C70.4824 127.798 70.306 127.798 70.0416 127.798C69.4685 127.842 68.587 128.018 68.631 128.679C68.631 129.385 69.3804 129.517 70.2179 129.473L70.8791 129.429L70.7468 127.798ZM70.8791 130.046L70.2179 130.09C69.5567 130.134 68.8955 130.354 68.9396 130.927C68.9837 131.412 69.3804 131.633 70.262 131.544C70.5264 131.544 70.7468 131.5 70.9672 131.456L70.8791 130.046Z" fill="#FC0000"/>
<path d="M65.7219 132.206L65.81 130.178C65.8541 129.429 65.8541 128.9 65.8982 128.238C65.5896 128.811 65.4133 129.164 65.0607 129.693L63.4738 132.161L62.46 132.117L62.5923 127.313L63.4298 127.357L63.3416 129.385C63.3416 130.178 63.2975 130.575 63.2094 131.368C63.562 130.751 63.7383 130.398 64.0469 129.913C64.5317 129.164 65.0607 128.283 65.6337 127.445L66.6475 127.489L66.5153 132.294L65.7219 132.206Z" fill="#FC0000"/>
<path d="M57.0383 131.544L57.5232 127.445L57.0383 127.401L57.3469 125.241L58.0521 125.329L57.9199 126.872L61.2258 127.269L61.4462 125.726L62.1515 125.814L61.9311 127.974L61.5344 127.93C61.2699 128.194 61.0936 128.547 60.9613 128.856C60.7409 129.429 60.5646 130.046 60.4765 130.751L60.3001 131.985L57.0383 131.544ZM59.5949 130.398C59.683 129.781 59.8594 129.164 60.0357 128.635C60.1679 128.327 60.3442 128.062 60.5205 127.798L58.3166 127.533L57.9199 131.015L59.5067 131.192L59.5949 130.398Z" fill="#FC0000"/>
<path d="M55.275 128.635C55.4954 127.445 54.8783 126.828 53.9967 126.652C53.3796 126.564 53.027 126.564 52.6303 126.608L52.5862 125.947C52.9388 125.858 53.4678 125.858 54.2171 125.991C55.6717 126.299 56.3329 127.401 56.0685 128.812C55.804 130.222 54.7461 131.192 53.3356 130.928C51.7928 130.619 51.6606 129.164 51.8369 128.283C51.8369 128.106 51.881 127.974 51.9691 127.886L55.275 128.635ZM52.6303 128.724C52.4981 129.297 52.5862 130.178 53.556 130.355C54.4375 130.531 54.9665 129.826 55.1428 129.208L52.6303 128.724Z" fill="#FC0000"/>
<path d="M46.5916 126.652C47.0764 124.933 48.5311 124.536 49.633 124.845C50.8672 125.197 51.5725 126.431 51.1758 127.886C50.6909 129.429 49.4567 130.046 48.1343 129.693C46.7679 129.296 46.1508 128.062 46.5916 126.652ZM50.2501 127.666C50.5587 126.652 50.162 125.726 49.3686 125.462C48.5751 125.197 47.7376 125.77 47.4291 126.872C47.2087 127.621 47.2968 128.768 48.3107 129.076C49.2804 129.341 49.9857 128.547 50.2501 127.666Z" fill="#FC0000"/>
<path d="M19.7472 105.802C20.0557 105.934 20.6287 106.331 21.2018 106.904C22.4801 108.271 22.5241 110.166 20.9373 111.665C19.3505 113.075 17.3669 113.031 15.9564 111.444C15.4274 110.827 15.163 110.298 15.1189 110.078L15.7801 109.769C15.8682 110.122 16.1327 110.563 16.5294 110.959C17.5873 112.106 19.0419 112.238 20.3643 111.004C21.5544 109.902 21.7307 108.491 20.6287 107.301C20.2761 106.948 19.8353 106.596 19.4827 106.419L19.7472 105.802Z" fill="#FC0000"/>
<path d="M15.4275 107.83L14.7663 106.992L16.2209 104.832C16.4413 104.524 16.7939 103.995 17.0143 103.686C16.6617 103.774 15.8683 104.039 15.3393 104.215L13.1795 104.876L12.5183 104.039L16.1768 100.909L16.6617 101.57L14.8545 103.025C14.4578 103.334 14.017 103.774 13.488 104.127C13.9288 103.951 14.3255 103.818 15.0749 103.598L17.5874 102.849L17.9841 103.334L16.5735 105.449C16.265 105.846 15.8683 106.419 15.5597 106.816L15.6038 106.86C16.0887 106.551 16.6176 106.199 17.0143 105.89L18.9097 104.612L19.3946 105.273L15.4275 107.83Z" fill="#FC0000"/>
<path d="M11.3284 97.471C12.8712 96.546 14.1495 97.207 14.7666 98.177C15.4278 99.279 15.1192 100.645 13.885 101.438C12.5185 102.276 11.1521 101.879 10.4468 100.733C9.65338 99.587 10.0501 98.221 11.3284 97.471ZM13.312 100.689C14.1935 100.16 14.5903 99.234 14.1054 98.485C13.6646 97.78 12.6508 97.648 11.7251 98.221C11.0199 98.661 10.3587 99.499 10.9317 100.425C11.4606 101.306 12.5626 101.174 13.312 100.689Z" fill="#FC0000"/>
<path d="M7.18481 94.65L7.80191 94.298L8.50711 95.62L12.1657 93.725L12.5624 94.474L8.90382 96.369L9.60912 97.692L8.99202 98.044L7.18481 94.65Z" fill="#FC0000"/>
<path d="M8.24258 93.151C7.66958 93.372 7.18468 93.592 6.78798 93.812L6.47938 93.063L7.22878 92.666C6.52348 92.578 6.03858 92.181 5.73008 91.432C5.28928 90.374 5.86228 89.184 7.22878 88.611C8.85968 87.95 10.0498 88.611 10.4465 89.625C10.6669 90.198 10.6669 90.815 10.3143 91.256L12.7386 90.242L13.0913 91.035L8.24258 93.151ZM9.08008 91.873C9.21228 91.829 9.30048 91.741 9.43268 91.697C9.91758 91.3 10.0939 90.683 9.87348 90.11C9.52088 89.228 8.63928 89.052 7.58138 89.493C6.69978 89.845 6.12678 90.683 6.47938 91.476C6.69978 92.049 7.31688 92.402 7.97808 92.27C8.06628 92.27 8.19848 92.226 8.33068 92.182L9.08008 91.873Z" fill="#FC0000"/>
<path d="M6.83238 86.98C7.93428 86.584 8.19878 85.702 7.93428 84.909C7.75798 84.292 7.53758 83.983 7.27308 83.718L7.80208 83.366C8.02248 83.586 8.33098 84.071 8.55138 84.82C8.99218 86.231 8.37508 87.377 6.96458 87.818C5.55408 88.259 4.23168 87.818 3.83498 86.451C3.39418 84.953 4.54019 84.159 5.37769 83.851C5.55409 83.763 5.68628 83.807 5.77448 83.718L6.83238 86.98ZM5.46589 84.732C4.93699 84.909 4.18759 85.393 4.49619 86.319C4.76059 87.201 5.64218 87.289 6.25928 87.201L5.46589 84.732Z" fill="#FC0000"/>
<path d="M2.29199 80.06L2.99729 79.884L3.34989 81.382L7.36109 80.457L7.58149 81.294L3.57029 82.22L3.92289 83.718L3.21759 83.895L2.29199 80.06Z" fill="#FC0000"/>
<path d="M1.93945 78.297L3.52635 78.032C3.43815 77.856 3.39405 77.547 3.35005 77.239C3.17365 76.181 3.30596 74.991 4.58426 74.77C5.11316 74.682 5.46575 74.859 5.77435 75.079C6.30325 75.52 6.52365 76.357 6.70005 77.062C6.74405 77.547 6.83225 77.988 6.83225 78.341L2.07175 79.134L1.93945 78.297ZM6.12695 77.547C6.12695 77.371 6.12695 77.195 6.08295 76.886C5.95065 76.225 5.59805 75.432 4.84865 75.564C4.01115 75.696 4.01115 76.578 4.05525 77.239C4.09935 77.459 4.14345 77.68 4.23155 77.856L6.12695 77.547Z" fill="#FC0000"/>
<path d="M1.146 71.7731C1.0579 71.4211 0.969702 70.8036 0.969702 70.2747C0.925702 69.4372 1.0138 68.1148 2.0276 68.0707C2.6007 68.0266 3.0414 68.4674 3.1737 69.0404C3.2618 68.3352 3.6145 67.8062 4.2757 67.7622C5.5539 67.7181 5.7743 69.2608 5.8625 70.2306C5.8625 70.7595 5.9066 71.3321 5.9066 71.5971L1.146 71.7731ZM3.0855 70.8036L3.0414 70.1424C2.9974 69.4812 2.777 68.8201 2.2039 68.8641C1.7191 68.9082 1.4987 69.3049 1.5868 70.1865C1.5868 70.451 1.6309 70.6714 1.675 70.8918L3.0855 70.8036ZM5.2895 70.7154C5.2895 70.451 5.2895 70.2747 5.2895 70.0102C5.2454 69.4372 5.0691 68.5556 4.4079 68.5997C3.7026 68.5997 3.5704 69.349 3.6145 70.1865L3.6585 70.8477L5.2895 70.7154Z" fill="#FC0000"/>
<path d="M0.881313 65.6901L2.90891 65.7782C3.65831 65.8223 4.18721 65.8223 4.84841 65.8664C4.27541 65.5578 3.92281 65.3815 3.39381 65.0289L0.925413 63.442L0.969513 62.4282L5.77411 62.5604L5.73001 63.3979L3.70241 63.3098C2.90891 63.3098 2.51221 63.2657 1.71881 63.1776C2.33591 63.5302 2.68861 63.7065 3.17341 64.0151C3.92281 64.4999 4.80431 65.0289 5.64181 65.6019L5.59781 66.6157L0.793213 66.4835L0.881313 65.6901Z" fill="#FC0000"/>
<path d="M1.5868 56.9628L5.6861 57.4477L5.7302 56.9628L7.89 57.2713L7.8019 57.9766L6.2591 57.8444L5.8624 61.1503L7.4052 61.3707L7.317 62.0759L5.1572 61.8556L5.2012 61.4588C4.9368 61.1944 4.5841 61.0181 4.2756 60.8858C3.7026 60.6654 3.0854 60.4891 2.3802 60.4009L1.146 60.2246L1.5868 56.9628ZM2.7769 59.5634C3.394 59.6516 4.0111 59.8279 4.5401 60.0042C4.8486 60.1365 5.1131 60.3128 5.3775 60.4891L5.642 58.2852L2.1598 57.8884L1.9835 59.4753L2.7769 59.5634Z" fill="#FC0000"/>
<path d="M4.45158 55.2435C5.64178 55.4639 6.25888 54.8468 6.43518 53.9652C6.52338 53.3481 6.52338 52.9955 6.47928 52.5988L7.14048 52.5547C7.22858 52.9074 7.22858 53.4363 7.09638 54.1856C6.78778 55.6402 5.68588 56.3014 4.27528 56.037C2.86478 55.7725 1.89508 54.7146 2.15948 53.3041C2.46808 51.7613 3.92268 51.6291 4.80428 51.8054C4.98058 51.8054 5.11278 51.8495 5.20098 51.9376L4.45158 55.2435ZM4.36348 52.5988C3.79048 52.4666 2.90888 52.5547 2.73258 53.5245C2.55628 54.406 3.26148 54.935 3.87858 55.1113L4.36348 52.5988Z" fill="#FC0000"/>
<path d="M6.47962 46.5163C8.19872 47.0011 8.59542 48.4557 8.28692 49.5577C7.93422 50.7919 6.70002 51.4972 5.24542 51.1005C3.70272 50.6156 3.08562 49.3814 3.43822 48.059C3.79082 46.7367 5.02502 46.1196 6.47962 46.5163ZM5.42172 50.2189C6.43562 50.5275 7.36122 50.1307 7.62572 49.3373C7.89022 48.5439 7.31712 47.7064 6.21522 47.3978C5.46582 47.1775 4.31982 47.2656 4.01122 48.2794C3.79082 49.2932 4.54022 49.9544 5.42172 50.2189Z" fill="#FC0000"/>
<path d="M27.3287 19.6721C27.1965 19.9807 26.7998 20.5537 26.2268 21.1267C24.8603 22.405 22.9649 22.4491 21.4662 20.8623C20.0557 19.2754 20.0998 17.2919 21.6866 15.8814C22.3037 15.3524 22.8327 15.0879 23.0531 15.0439L23.3616 15.705C23.009 15.7932 22.5682 16.0577 22.1715 16.4544C21.0255 17.5123 20.8932 18.9669 22.1274 20.2892C23.2294 21.4794 24.6399 21.6557 25.8301 20.5537C26.1827 20.2011 26.5353 19.7603 26.7116 19.4077L27.3287 19.6721Z" fill="#FC0000"/>
<path d="M25.3452 15.3965L26.1827 14.7353L28.3426 16.1899C28.6511 16.4103 29.1801 16.763 29.4886 16.9834C29.3564 16.5867 29.136 15.8373 28.9597 15.3084L28.2985 13.1485L29.136 12.4873L32.2656 16.1459L31.6044 16.6307L30.1498 14.8235C29.8413 14.4268 29.4005 13.986 29.0478 13.4571C29.2242 13.986 29.3564 14.3827 29.6209 15.088L30.3702 17.6005L29.8853 17.9972L27.7696 16.5867C27.3288 16.3222 26.7117 15.8814 26.359 15.6169L26.3149 15.661C26.6235 16.1459 26.9761 16.6748 27.2847 17.0715L28.563 18.9669L27.9018 19.4518L25.3452 15.3965Z" fill="#FC0000"/>
<path d="M35.6596 11.2529C36.5853 12.7957 35.9241 14.0739 34.9543 14.691C33.8524 15.3522 32.4859 15.0437 31.6925 13.8095C30.855 12.443 31.2517 11.0766 32.3978 10.3713C33.5879 9.62201 34.9103 9.9746 35.6596 11.2529ZM32.3978 13.2805C32.9267 14.1621 33.8524 14.5588 34.6017 14.0739C35.307 13.6331 35.4392 12.6193 34.8662 11.6937C34.4254 10.9884 33.5879 10.3272 32.6622 10.9003C31.8247 11.4733 31.957 12.4871 32.3978 13.2805Z" fill="#FC0000"/>
<path d="M38.4364 7.15344L38.789 7.77054L37.4666 8.47584L39.362 12.1343L38.5245 12.531L36.6291 8.87254L35.3068 9.57784L34.9541 8.96064L38.4364 7.15344Z" fill="#FC0000"/>
<path d="M39.9796 8.16774C39.7592 7.59474 39.5388 7.10984 39.3184 6.71314L40.0677 6.40463L40.4644 7.15394C40.5526 6.44864 40.9493 5.96384 41.6986 5.65524C42.7565 5.21444 43.9467 5.78754 44.5197 7.15394C45.1809 8.78484 44.5197 9.97504 43.5059 10.3717C42.9329 10.5921 42.3158 10.5921 41.875 10.2394L42.8888 12.6638L42.0954 13.0164L39.9796 8.16774ZM41.2579 9.00523C41.3019 9.13753 41.3901 9.22563 41.4342 9.35793C41.8309 9.84273 42.448 10.019 43.021 9.79863C43.9026 9.44603 44.0789 8.56444 43.6381 7.50654C43.2855 6.62504 42.448 6.05193 41.6546 6.40463C41.0815 6.62503 40.7289 7.24213 40.8611 7.90323C40.8611 7.99143 40.9052 8.12364 40.9493 8.25594L41.2579 9.00523Z" fill="#FC0000"/>
<path d="M46.1508 6.84544C46.5475 7.94744 47.429 8.21184 48.2225 7.94744C48.8396 7.77104 49.1481 7.55064 49.4126 7.28624L49.7652 7.81514C49.5448 8.03554 49.06 8.34414 48.3106 8.56454C46.9001 9.00534 45.7541 8.38814 45.3133 6.97764C44.8725 5.56714 45.3133 4.24474 46.6797 3.84804C48.1784 3.40724 48.9718 4.55334 49.2804 5.39084C49.3685 5.56714 49.3244 5.69934 49.4126 5.78754L46.1508 6.84544ZM48.4429 5.43494C48.2665 4.90594 47.7817 4.15664 46.856 4.46514C45.9744 4.72964 45.8863 5.61124 45.9744 6.22834L48.4429 5.43494Z" fill="#FC0000"/>
<path d="M53.0267 2.26074L53.203 2.96604L51.7044 3.31864L52.63 7.32984L51.7925 7.55024L50.8669 3.53904L49.3682 3.89164L49.1919 3.18644L53.0267 2.26074Z" fill="#FC0000"/>
<path d="M54.8779 1.90808L55.1424 3.49498C55.3187 3.40678 55.6273 3.36268 55.9358 3.31858C56.9937 3.14228 58.1838 3.27458 58.4042 4.55288C58.4924 5.08178 58.3161 5.43438 58.0957 5.74298C57.6549 6.27188 56.8174 6.49228 56.1121 6.66858C55.6273 6.71268 55.1865 6.80088 54.8338 6.80088L53.9963 2.08438L54.8779 1.90808ZM55.5391 6.09558C55.7154 6.09558 55.8917 6.09558 56.2003 6.05148C56.8615 5.91928 57.6549 5.56668 57.5226 4.81728C57.3904 3.97978 56.5088 3.97978 55.8476 4.02388C55.6273 4.06798 55.4069 4.11208 55.2305 4.20018L55.5391 6.09558Z" fill="#FC0000"/>
<path d="M61.4019 1.11497C61.7545 1.02677 62.3716 0.938574 62.9006 0.938574C63.7381 0.894574 65.0604 0.982673 65.1045 1.99647C65.1486 2.56957 64.7078 3.01037 64.1348 3.14257C64.84 3.23077 65.369 3.58337 65.4131 4.24457C65.4572 5.52287 63.9144 5.74328 62.9447 5.83138C62.4157 5.83138 61.8427 5.87547 61.5782 5.87547L61.4019 1.11497ZM62.3275 3.01037L62.9887 2.96627C63.6499 2.92217 64.3111 2.70177 64.267 2.12877C64.2229 1.64387 63.8262 1.42347 62.9447 1.51167C62.6802 1.51167 62.4598 1.55577 62.2394 1.59977L62.3275 3.01037ZM62.4598 5.25837C62.7243 5.25837 62.9006 5.25837 63.165 5.25837C63.7381 5.21427 64.6197 5.03797 64.5756 4.37677C64.5756 3.67147 63.8262 3.53927 62.9887 3.58337L62.3275 3.62747L62.4598 5.25837Z" fill="#FC0000"/>
<path d="M67.4405 0.894718L67.3524 2.92232C67.3083 3.67162 67.3083 4.20062 67.2642 4.86182C67.5728 4.28872 67.7491 3.93612 68.1017 3.40722L69.6885 0.938719L70.7024 0.982819L70.5701 5.78742L69.7326 5.74332L69.8208 3.71572C69.8208 2.92232 69.8649 2.52562 69.953 1.73222C69.6004 2.34932 69.4241 2.70192 69.1155 3.18682C68.6306 3.93612 68.1017 4.81772 67.5287 5.65522L66.5149 5.61112L66.6471 0.806519L67.4405 0.894718Z" fill="#FC0000"/>
<path d="M76.1241 1.55585L75.6401 5.65525L76.1241 5.69925L75.8161 7.85915L75.1111 7.77105L75.3311 6.31635L72.0251 5.91965L71.8051 7.46245L71.0991 7.37425L71.3201 5.21445L71.7171 5.25855C71.9811 4.99405 72.1571 4.64135 72.2901 4.33285C72.5101 3.75985 72.6861 3.14275 72.7741 2.43745L72.9511 1.20325L76.1241 1.55585ZM73.5681 2.70195C73.4801 3.31905 73.3031 3.93615 73.1271 4.46505C72.9951 4.77365 72.8191 5.03815 72.6421 5.30255L74.8461 5.56705L75.2431 2.08485L73.6561 1.90855L73.5681 2.70195Z" fill="#FC0000"/>
<path d="M77.8871 4.46467C77.6671 5.65477 78.2841 6.27187 79.1661 6.44817C79.7831 6.53637 80.1351 6.53637 80.5321 6.49227L80.5761 7.15347C80.2231 7.24157 79.6951 7.24157 78.9451 7.10937C77.4911 6.80087 76.8291 5.69887 77.0941 4.28837C77.3581 2.87777 78.4161 1.90807 79.8271 2.17257C81.3701 2.48107 81.5021 3.93567 81.3251 4.81727C81.3251 4.99357 81.2811 5.12587 81.1931 5.21397L77.8871 4.46467ZM80.5321 4.37647C80.6641 3.80347 80.5761 2.92187 79.6061 2.74557C78.7251 2.56927 78.1961 3.27447 78.0201 3.89157L80.5321 4.37647Z" fill="#FC0000"/>
<path d="M86.5711 6.44854C86.0861 8.16764 84.6311 8.56434 83.5291 8.25574C82.2951 7.90314 81.5901 6.66894 81.9871 5.21434C82.4711 3.67154 83.7061 3.05444 85.0281 3.40714C86.3941 3.80384 87.0121 5.03804 86.5711 6.44854ZM82.9121 5.43474C82.6041 6.44854 83.0001 7.37424 83.7941 7.63864C84.5871 7.90314 85.4251 7.33014 85.7331 6.22814C85.9541 5.47884 85.8651 4.33274 84.8521 4.02424C83.8381 3.71564 83.1331 4.50904 82.9121 5.43474Z" fill="#FC0000"/>
<path d="M27.3287 19.6721C27.1965 19.9807 26.7998 20.5537 26.2268 21.1267C24.8603 22.405 22.9649 22.4491 21.4662 20.8623C20.0557 19.2754 20.0998 17.2919 21.6866 15.8814C22.3037 15.3524 22.8327 15.0879 23.0531 15.0439L23.3616 15.705C23.009 15.7932 22.5682 16.0577 22.1715 16.4544C21.0255 17.5123 20.8932 18.9669 22.1274 20.2892C23.2294 21.4794 24.6399 21.6557 25.8301 20.5537C26.1827 20.2011 26.5353 19.7603 26.7116 19.4077L27.3287 19.6721Z" fill="#FC0000"/>
<path d="M25.3452 15.3965L26.1827 14.7353L28.3426 16.1899C28.6511 16.4103 29.1801 16.763 29.4886 16.9834C29.3564 16.5867 29.136 15.8373 28.9597 15.3084L28.2985 13.1485L29.136 12.4873L32.2656 16.1459L31.6044 16.6307L30.1498 14.8235C29.8413 14.4268 29.4005 13.986 29.0478 13.4571C29.2242 13.986 29.3564 14.3827 29.6209 15.088L30.3702 17.6005L29.8853 17.9972L27.7696 16.5867C27.3288 16.3222 26.7117 15.8814 26.359 15.6169L26.3149 15.661C26.6235 16.1459 26.9761 16.6748 27.2847 17.0715L28.563 18.9669L27.9018 19.4518L25.3452 15.3965Z" fill="#FC0000"/>
<path d="M35.6596 11.2529C36.5853 12.7957 35.9241 14.0739 34.9543 14.691C33.8524 15.3522 32.4859 15.0437 31.6925 13.8095C30.855 12.443 31.2517 11.0766 32.3978 10.3713C33.5879 9.62201 34.9103 9.9746 35.6596 11.2529ZM32.3978 13.2805C32.9267 14.1621 33.8524 14.5588 34.6017 14.0739C35.307 13.6331 35.4392 12.6193 34.8662 11.6937C34.4254 10.9884 33.5879 10.3272 32.6622 10.9003C31.8247 11.4733 31.957 12.4871 32.3978 13.2805Z" fill="#FC0000"/>
<path d="M38.4364 7.15344L38.789 7.77054L37.4666 8.47584L39.362 12.1343L38.5245 12.531L36.6291 8.87254L35.3068 9.57784L34.9541 8.96064L38.4364 7.15344Z" fill="#FC0000"/>
<path d="M39.9796 8.16774C39.7592 7.59474 39.5388 7.10984 39.3184 6.71314L40.0677 6.40463L40.4644 7.15394C40.5526 6.44864 40.9493 5.96384 41.6986 5.65524C42.7565 5.21444 43.9467 5.78754 44.5197 7.15394C45.1809 8.78484 44.5197 9.97504 43.5059 10.3717C42.9329 10.5921 42.3158 10.5921 41.875 10.2394L42.8888 12.6638L42.0954 13.0164L39.9796 8.16774ZM41.2579 9.00523C41.3019 9.13753 41.3901 9.22563 41.4342 9.35793C41.8309 9.84273 42.448 10.019 43.021 9.79863C43.9026 9.44603 44.0789 8.56444 43.6381 7.50654C43.2855 6.62504 42.448 6.05193 41.6546 6.40463C41.0815 6.62503 40.7289 7.24213 40.8611 7.90323C40.8611 7.99143 40.9052 8.12364 40.9493 8.25594L41.2579 9.00523Z" fill="#FC0000"/>
<path d="M46.1508 6.84544C46.5475 7.94744 47.429 8.21184 48.2225 7.94744C48.8396 7.77104 49.1481 7.55064 49.4126 7.28624L49.7652 7.81514C49.5448 8.03554 49.06 8.34414 48.3106 8.56454C46.9001 9.00534 45.7541 8.38814 45.3133 6.97764C44.8725 5.56714 45.3133 4.24474 46.6797 3.84804C48.1784 3.40724 48.9718 4.55334 49.2804 5.39084C49.3685 5.56714 49.3244 5.69934 49.4126 5.78754L46.1508 6.84544ZM48.4429 5.43494C48.2665 4.90594 47.7817 4.15664 46.856 4.46514C45.9744 4.72964 45.8863 5.61124 45.9744 6.22834L48.4429 5.43494Z" fill="#FC0000"/>
<path d="M53.0267 2.26074L53.203 2.96604L51.7044 3.31864L52.63 7.32984L51.7925 7.55024L50.8669 3.53904L49.3682 3.89164L49.1919 3.18644L53.0267 2.26074Z" fill="#FC0000"/>
<path d="M54.8779 1.90808L55.1424 3.49498C55.3187 3.40678 55.6273 3.36268 55.9358 3.31858C56.9937 3.14228 58.1838 3.27458 58.4042 4.55288C58.4924 5.08178 58.3161 5.43438 58.0957 5.74298C57.6549 6.27188 56.8174 6.49228 56.1121 6.66858C55.6273 6.71268 55.1865 6.80088 54.8338 6.80088L53.9963 2.08438L54.8779 1.90808ZM55.5391 6.09558C55.7154 6.09558 55.8917 6.09558 56.2003 6.05148C56.8615 5.91928 57.6549 5.56668 57.5226 4.81728C57.3904 3.97978 56.5088 3.97978 55.8476 4.02388C55.6273 4.06798 55.4069 4.11208 55.2305 4.20018L55.5391 6.09558Z" fill="#FC0000"/>
<path d="M61.4019 1.11497C61.7545 1.02677 62.3716 0.938574 62.9006 0.938574C63.7381 0.894574 65.0604 0.982673 65.1045 1.99647C65.1486 2.56957 64.7078 3.01037 64.1348 3.14257C64.84 3.23077 65.369 3.58337 65.4131 4.24457C65.4572 5.52287 63.9144 5.74328 62.9447 5.83138C62.4157 5.83138 61.8427 5.87547 61.5782 5.87547L61.4019 1.11497ZM62.3275 3.01037L62.9887 2.96627C63.6499 2.92217 64.3111 2.70177 64.267 2.12877C64.2229 1.64387 63.8262 1.42347 62.9447 1.51167C62.6802 1.51167 62.4598 1.55577 62.2394 1.59977L62.3275 3.01037ZM62.4598 5.25837C62.7243 5.25837 62.9006 5.25837 63.165 5.25837C63.7381 5.21427 64.6197 5.03797 64.5756 4.37677C64.5756 3.67147 63.8262 3.53927 62.9887 3.58337L62.3275 3.62747L62.4598 5.25837Z" fill="#FC0000"/>
<path d="M67.4405 0.894718L67.3524 2.92232C67.3083 3.67162 67.3083 4.20062 67.2642 4.86182C67.5728 4.28872 67.7491 3.93612 68.1017 3.40722L69.6885 0.938719L70.7024 0.982819L70.5701 5.78742L69.7326 5.74332L69.8208 3.71572C69.8208 2.92232 69.8649 2.52562 69.953 1.73222C69.6004 2.34932 69.4241 2.70192 69.1155 3.18682C68.6306 3.93612 68.1017 4.81772 67.5287 5.65522L66.5149 5.61112L66.6471 0.806519L67.4405 0.894718Z" fill="#FC0000"/>
<path d="M76.1241 1.55585L75.6401 5.65525L76.1241 5.69925L75.8161 7.85915L75.1111 7.77105L75.3311 6.31635L72.0251 5.91965L71.8051 7.46245L71.0991 7.37425L71.3201 5.21445L71.7171 5.25855C71.9811 4.99405 72.1571 4.64135 72.2901 4.33285C72.5101 3.75985 72.6861 3.14275 72.7741 2.43745L72.9511 1.20325L76.1241 1.55585ZM73.5681 2.70195C73.4801 3.31905 73.3031 3.93615 73.1271 4.46505C72.9951 4.77365 72.8191 5.03815 72.6421 5.30255L74.8461 5.56705L75.2431 2.08485L73.6561 1.90855L73.5681 2.70195Z" fill="#FC0000"/>
<path d="M77.8871 4.46467C77.6671 5.65477 78.2841 6.27187 79.1661 6.44817C79.7831 6.53637 80.1351 6.53637 80.5321 6.49227L80.5761 7.15347C80.2231 7.24157 79.6951 7.24157 78.9451 7.10937C77.4911 6.80087 76.8291 5.69887 77.0941 4.28837C77.3581 2.87777 78.4161 1.90807 79.8271 2.17257C81.3701 2.48107 81.5021 3.93567 81.3251 4.81727C81.3251 4.99357 81.2811 5.12587 81.1931 5.21397L77.8871 4.46467ZM80.5321 4.37647C80.6641 3.80347 80.5761 2.92187 79.6061 2.74557C78.7251 2.56927 78.1961 3.27447 78.0201 3.89157L80.5321 4.37647Z" fill="#FC0000"/>
<path d="M86.5711 6.44854C86.0861 8.16764 84.6311 8.56434 83.5291 8.25574C82.2951 7.90314 81.5901 6.66894 81.9871 5.21434C82.4711 3.67154 83.7061 3.05444 85.0281 3.40714C86.3941 3.80384 87.0121 5.03804 86.5711 6.44854ZM82.9121 5.43474C82.6041 6.44854 83.0001 7.37424 83.7941 7.63864C84.5871 7.90314 85.4251 7.33014 85.7331 6.22814C85.9541 5.47884 85.8651 4.33274 84.8521 4.02424C83.8381 3.71564 83.1331 4.50904 82.9121 5.43474Z" fill="#FC0000"/>
</svg>
