<?xml version="1.0" encoding="UTF-8"?>
<!DOCTYPE svg PUBLIC "-//W3C//DTD SVG 1.1//EN" "http://www.w3.org/Graphics/SVG/1.1/DTD/svg11.dtd">
<!-- Creator: CorelDRAW -->
<svg xmlns="http://www.w3.org/2000/svg" xml:space="preserve" width="120px" height="120px" shape-rendering="geometricPrecision" text-rendering="geometricPrecision" image-rendering="optimizeQuality" fill-rule="evenodd" clip-rule="evenodd"
viewBox="0 0 95.9995 95.9993"
 xmlns:xlink="http://www.w3.org/1999/xlink">
 <g id="Layer_x0020_1">
  <metadata id="CorelCorpID_0Corel-Layer"/>
  <g id="_1018197104">
   <rect id="_1023204152" fill="none" x="0.000296388" y="6.96182e-005" width="95.9993" height="95.9993"/>
   <path id="_1018203704" fill="#0071C3" fill-rule="nonzero" d="M19.7458 12.7932l0 25.0363 54.8101 0 0 -25.0363 0 -2.40014 2.40014 0 16.6431 0 2.40014 0 0 2.40014 0 50.4575c0,1.50394 -0.163501,2.99586 -0.490504,4.47486 -0.321333,1.45473 -0.80254,2.86252 -1.44249,4.22292 -0.632235,1.34384 -1.36266,2.59833 -2.18992,3.76121 -0.834514,1.17331 -1.77085,2.26317 -2.80742,3.26799 -1.03543,1.00437 -2.15636,1.90872 -3.36051,2.71172l-0.00952435 0.00952435c-1.19122,0.793696 -2.47112,1.48988 -3.83831,2.08719 -1.38239,0.603436 -2.7954,1.0572 -4.23766,1.35994 -1.45972,0.306593 -2.92783,0.45989 -4.4032,0.45989l-67.3376 0 -2.40014 0 0 -2.40014 0 -16.2191 0 -2.40014 2.40014 0 68.7588 0 0 -6.41714 -51.6063 0c-1.4765,0 -2.95073,-0.136289 -4.42179,-0.40796 -1.44906,-0.267589 -2.86728,-0.669426 -4.25217,-1.2046 -1.38738,-0.536085 -2.68723,-1.17558 -3.89818,-1.91757 -1.2334,-0.756279 -2.37837,-1.61506 -3.43307,-2.57566 -1.05403,-0.959465 -2.01032,-2.01689 -2.86774,-3.17047 -0.850388,-1.14428 -1.59057,-2.36975 -2.2194,-3.67458 -0.641987,-1.33364 -1.12637,-2.73734 -1.45178,-4.20976 -0.326776,-1.47832 -0.490504,-2.98407 -0.490504,-4.51545l0 -23.7002 0 -2.40014 2.40014 0 14.9455 0 2.40014 0 0 2.40014z"/>
  </g>
 </g>
</svg>
